<?xml version="1.0" encoding="UTF-8"?>
<svg xmlns="http://www.w3.org/2000/svg" xmlns:xlink="http://www.w3.org/1999/xlink" width="375pt" height="374.999991pt" viewBox="0 0 375 374.999991" version="1.2">
<defs>
<clipPath id="clip1">
  <path d="M 87 65.222656 L 261 65.222656 L 261 309 L 87 309 Z M 87 65.222656 "/>
</clipPath>
<clipPath id="clip2">
  <path d="M 83.230469 76 L 283 76 L 283 299 L 83.230469 299 Z M 83.230469 76 "/>
</clipPath>
<clipPath id="clip3">
  <path d="M 83.5 76 L 289 76 L 289 309.722656 L 83.5 309.722656 Z M 83.5 76 "/>
</clipPath>
<clipPath id="clip4">
  <path d="M 217.71875 91.511719 L 291.480469 91.511719 L 291.480469 239.800781 L 217.71875 239.800781 Z M 217.71875 91.511719 "/>
</clipPath>
</defs>
<g id="surface1">
<g clip-path="url(#clip1)" clip-rule="nonzero">
<path style=" stroke:none;fill-rule:nonzero;fill:rgb(6.269836%,5.879211%,5.099487%);fill-opacity:1;" d="M 246.0625 65.894531 C 229.910156 66.539062 225.171875 73.429688 224.847656 76.769531 C 224.527344 80.105469 236.152344 103.6875 236.152344 103.6875 L 252.089844 102.71875 C 252.089844 102.71875 255.105469 96.6875 258.445312 89.800781 C 261.78125 82.90625 262.214844 65.25 246.0625 65.894531 Z M 180.070312 157.953125 L 166.78125 106.269531 C 166.289062 104.371094 164.578125 103.039062 162.613281 103.035156 L 91.644531 102.84375 C 88.75 102.835938 86.671875 105.621094 87.5 108.390625 L 103.007812 160.261719 C 103.554688 162.089844 105.234375 163.339844 107.140625 163.339844 L 175.894531 163.339844 C 178.710938 163.339844 180.769531 160.683594 180.070312 157.953125 Z M 210.042969 301.273438 L 199.488281 306.957031 C 199.523438 307.625 199.542969 308.277344 199.542969 308.917969 L 165.304688 308.917969 C 165.304688 308.917969 169.613281 302.457031 178.441406 302.457031 C 187.269531 302.457031 186.625 296.425781 186.625 296.425781 L 197.5625 292.871094 C 197.5625 292.871094 197.996094 293.417969 198.191406 294.253906 L 205.359375 291.742188 C 205.359375 291.742188 208.914062 295.621094 210.042969 301.273438 "/>
</g>
<g clip-path="url(#clip2)" clip-rule="nonzero">
<path style=" stroke:none;fill-rule:nonzero;fill:rgb(100%,100%,100%);fill-opacity:1;" d="M 211.390625 185.089844 L 166.164062 185.089844 L 166.164062 183.582031 L 148.015625 183.582031 C 143.828125 183.582031 140.800781 179.585938 141.9375 175.554688 L 145.40625 163.230469 L 175.570312 163.230469 C 178.355469 163.230469 180.398438 160.601562 179.703125 157.90625 L 177.894531 150.878906 L 100.695312 150.878906 L 103.480469 160.1875 C 104.019531 161.996094 105.683594 163.230469 107.566406 163.230469 L 121.664062 163.230469 L 118.003906 176.796875 C 116.878906 180.980469 120.027344 185.089844 124.359375 185.089844 L 83.921875 185.089844 L 83.921875 203.179688 L 211.390625 203.179688 Z M 282.886719 204.042969 L 238.738281 198.011719 C 238.738281 198.011719 188.128906 211.148438 175.855469 213.949219 C 163.582031 216.746094 156.6875 225.363281 161.425781 241.296875 C 166.164062 257.234375 180.378906 298.152344 180.378906 298.152344 L 197.71875 293.085938 L 198.332031 294.5 L 209.882812 290.613281 L 198.515625 236.777344 C 205.113281 236.777344 214.886719 236.777344 229.265625 236.777344 C 267.597656 236.777344 283.210938 242.160156 282.886719 204.042969 Z M 156.457031 130.613281 C 155.394531 128.183594 154.214844 125.84375 152.972656 123.609375 L 156.472656 130.714844 C 156.472656 130.714844 156.464844 130.671875 156.457031 130.613281 Z M 136.015625 100.996094 L 168.101562 100.996094 C 168.101562 100.996094 176.984375 105.082031 183.394531 117.683594 C 189.855469 130.390625 192.867188 145.683594 192.867188 145.683594 L 160.886719 145.683594 C 160.792969 145.015625 160.679688 144.351562 160.558594 143.691406 L 155.609375 149.667969 C 155.609375 149.667969 154.964844 149.019531 149.90625 140.726562 C 144.925781 132.570312 152.554688 123.585938 152.800781 123.300781 C 145.449219 110.203125 136.015625 100.996094 136.015625 100.996094 Z M 223.710938 98.65625 L 220.867188 98.734375 L 223.9375 94.292969 L 224.847656 76.769531 L 231.632812 79.894531 C 231.632812 79.894531 231.417969 87.859375 237.445312 90.984375 L 239.382812 84.84375 C 239.382812 84.84375 244.769531 84.199219 244.554688 89.152344 C 244.507812 90.214844 244.246094 91.164062 243.859375 92.007812 C 241.480469 97.195312 245.203125 103.25 250.898438 102.875 C 251.289062 102.847656 251.6875 102.796875 252.089844 102.71875 L 252.628906 110.472656 L 238.632812 113.269531 L 238.738281 107.78125 L 234.105469 109.605469 C 228.867188 111.675781 223.242188 107.632812 223.535156 102.003906 L 223.710938 98.65625 "/>
</g>
<path style=" stroke:none;fill-rule:nonzero;fill:rgb(3.138733%,49.01886%,43.528748%);fill-opacity:1;" d="M 229.910156 200.324219 L 222.15625 152.359375 C 222.15625 152.359375 197.824219 175.402344 192.007812 180.570312 C 186.191406 185.738281 178.222656 186.816406 171.980469 178.628906 C 165.734375 170.445312 150.011719 146.328125 150.011719 146.328125 L 162.933594 140.945312 L 181.453125 164.632812 C 181.453125 164.632812 208.589844 136.636719 215.480469 129.960938 C 222.371094 123.285156 235.507812 118.332031 235.507812 118.332031 L 236.585938 112.734375 L 253.167969 105.410156 L 255.535156 114.027344 C 255.535156 114.027344 266.304688 120.273438 271.042969 123.070312 C 275.78125 125.871094 277.070312 131.898438 278.148438 140.296875 C 279.226562 148.695312 284.394531 194.566406 285.039062 203.394531 C 285.6875 212.226562 261.566406 226.007812 234.863281 199.519531 L 229.910156 200.324219 "/>
<g clip-path="url(#clip3)" clip-rule="nonzero">
<path style=" stroke:none;fill-rule:nonzero;fill:rgb(6.269836%,5.879211%,5.099487%);fill-opacity:1;" d="M 152.292969 123.257812 C 151.074219 124.789062 144.851562 133.253906 149.546875 140.949219 C 150.257812 142.113281 150.878906 142.988281 151.425781 143.761719 C 151.804688 144.296875 152.144531 144.777344 152.453125 145.269531 C 152.53125 145.394531 152.667969 145.464844 152.808594 145.464844 C 152.886719 145.464844 152.960938 145.445312 153.03125 145.402344 C 153.230469 145.277344 153.289062 145.019531 153.164062 144.820312 C 152.847656 144.320312 152.5 143.824219 152.113281 143.277344 C 151.570312 142.515625 150.960938 141.648438 150.265625 140.511719 C 146.082031 133.664062 151.203125 126.066406 152.726562 124.066406 L 156.097656 130.898438 C 156.191406 131.089844 156.40625 131.179688 156.605469 131.113281 C 156.804688 131.050781 156.925781 130.847656 156.886719 130.640625 C 156.878906 130.597656 156.125 126.394531 155.480469 123.933594 C 155.242188 123.023438 155.421875 122.515625 155.703125 122.410156 C 156.035156 122.292969 156.609375 122.621094 156.953125 123.355469 C 157.472656 124.460938 157.574219 124.644531 158.226562 125.867188 C 158.671875 126.6875 159.371094 127.992188 160.625 130.371094 C 163.59375 136.003906 160.328125 141.410156 160.296875 141.460938 C 160.171875 141.660156 160.234375 141.917969 160.429688 142.042969 C 160.628906 142.164062 160.886719 142.101562 161.007812 141.902344 C 161.15625 141.667969 164.566406 136.046875 161.367188 129.980469 C 160.109375 127.59375 159.410156 126.292969 158.96875 125.46875 C 158.308594 124.238281 158.222656 124.082031 157.714844 123 C 157.132812 121.761719 156.117188 121.371094 155.417969 121.621094 C 154.796875 121.847656 154.273438 122.628906 154.667969 124.144531 C 154.90625 125.058594 155.160156 126.214844 155.386719 127.308594 C 154.726562 125.960938 154.035156 124.644531 153.320312 123.363281 L 153.191406 123.097656 C 153.175781 123.074219 153.152344 123.058594 153.132812 123.035156 C 146.988281 112.117188 139.355469 103.835938 137.015625 101.417969 L 168.007812 101.417969 C 168.898438 101.859375 177.066406 106.175781 183.019531 117.875 C 188.726562 129.101562 191.765625 142.523438 192.351562 145.261719 L 166.816406 145.261719 C 166.582031 145.261719 166.394531 145.449219 166.394531 145.683594 C 166.394531 145.914062 166.582031 146.101562 166.816406 146.101562 L 192.867188 146.101562 C 192.992188 146.101562 193.113281 146.046875 193.195312 145.949219 C 193.273438 145.851562 193.304688 145.722656 193.28125 145.601562 C 193.25 145.449219 190.179688 130.105469 183.765625 117.496094 C 177.367188 104.90625 168.648438 100.78125 168.277344 100.613281 C 168.222656 100.589844 168.164062 100.578125 168.101562 100.578125 L 136.015625 100.578125 C 135.84375 100.578125 135.691406 100.679688 135.625 100.839844 C 135.558594 100.996094 135.601562 101.179688 135.722656 101.296875 C 135.824219 101.398438 145.066406 110.488281 152.292969 123.257812 Z M 179.273438 161.839844 C 180.167969 160.6875 180.472656 159.214844 180.109375 157.800781 L 178.304688 150.773438 C 178.246094 150.546875 178.019531 150.414062 177.792969 150.472656 C 177.566406 150.53125 177.429688 150.757812 177.488281 150.980469 L 179.296875 158.007812 C 179.59375 159.167969 179.34375 160.375 178.609375 161.324219 Z M 283.503906 295.359375 L 264.597656 237.117188 C 264.546875 236.949219 264.601562 236.773438 264.726562 236.664062 C 259 237.59375 251.855469 237.515625 243.144531 237.363281 C 243.324219 237.449219 243.425781 237.652344 243.367188 237.851562 L 226.582031 295.359375 L 253.394531 295.359375 L 253.394531 238.929688 C 253.394531 238.695312 253.582031 238.507812 253.816406 238.507812 C 254.046875 238.507812 254.234375 238.695312 254.234375 238.929688 L 254.234375 295.359375 Z M 197.929688 237.195312 L 185.871094 237.195312 L 199.949219 292.449219 C 200.007812 292.667969 199.878906 292.890625 199.664062 292.953125 L 198.40625 293.320312 L 198.699219 293.976562 L 209.390625 290.335938 Z M 130.835938 185.523438 L 130.835938 202.761719 L 210.96875 202.761719 L 210.96875 185.511719 L 130.832031 185.511719 C 130.832031 185.515625 130.835938 185.519531 130.835938 185.523438 Z M 129.996094 202.761719 L 129.996094 185.523438 C 129.996094 185.519531 129.996094 185.515625 129.996094 185.511719 L 84.339844 185.511719 L 84.339844 202.761719 Z M 124.359375 184.671875 L 165.746094 184.671875 L 165.746094 184.003906 L 148.015625 184.003906 C 145.886719 184.003906 143.929688 183.03125 142.644531 181.335938 C 141.359375 179.636719 140.953125 177.492188 141.53125 175.445312 L 144.851562 163.652344 L 122.078125 163.652344 L 118.414062 176.910156 C 117.910156 178.773438 118.292969 180.722656 119.46875 182.257812 C 120.644531 183.789062 122.429688 184.671875 124.359375 184.671875 Z M 288.507812 309.425781 C 288.464844 309.4375 288.421875 309.445312 288.378906 309.445312 C 288.203125 309.445312 288.035156 309.332031 287.980469 309.15625 L 283.777344 296.199219 L 254.234375 296.199219 L 254.234375 309.347656 C 254.234375 309.582031 254.046875 309.769531 253.816406 309.769531 C 253.582031 309.769531 253.394531 309.582031 253.394531 309.347656 L 253.394531 296.199219 L 226.339844 296.199219 L 222.558594 309.144531 C 222.507812 309.324219 222.339844 309.445312 222.15625 309.445312 C 222.117188 309.445312 222.078125 309.4375 222.039062 309.425781 C 221.816406 309.363281 221.6875 309.132812 221.753906 308.90625 L 225.503906 296.054688 C 225.441406 295.980469 225.398438 295.886719 225.398438 295.78125 C 225.398438 295.589844 225.527344 295.433594 225.703125 295.382812 L 242.5625 237.617188 C 242.597656 237.496094 242.683594 237.40625 242.792969 237.355469 C 242.496094 237.351562 242.199219 237.34375 241.898438 237.339844 C 237.910156 237.269531 233.789062 237.195312 229.265625 237.195312 L 211.808594 237.195312 L 211.808594 309.023438 C 211.808594 309.257812 211.621094 309.445312 211.390625 309.445312 C 211.15625 309.445312 210.96875 309.257812 210.96875 309.023438 L 210.96875 237.195312 L 198.789062 237.195312 L 210.292969 290.523438 C 210.335938 290.734375 210.21875 290.941406 210.015625 291.011719 L 198.609375 294.898438 C 198.5625 294.914062 198.519531 294.921875 198.472656 294.921875 C 198.3125 294.921875 198.160156 294.828125 198.085938 294.671875 L 197.59375 293.558594 L 180.496094 298.554688 C 180.457031 298.566406 180.417969 298.570312 180.378906 298.570312 C 180.203125 298.570312 180.042969 298.460938 179.980469 298.289062 C 179.835938 297.878906 165.710938 257.179688 161.023438 241.417969 C 158.746094 233.75 159.023438 227.40625 161.847656 222.566406 C 164.46875 218.085938 169.148438 215.046875 175.761719 213.539062 C 182.054688 212.105469 197.496094 208.238281 210.96875 204.832031 L 210.96875 203.601562 L 130.835938 203.601562 L 130.835938 309.023438 C 130.835938 309.257812 130.648438 309.445312 130.414062 309.445312 C 130.183594 309.445312 129.996094 309.257812 129.996094 309.023438 L 129.996094 203.601562 L 84.339844 203.601562 L 84.339844 309.023438 C 84.339844 309.257812 84.152344 309.445312 83.921875 309.445312 C 83.691406 309.445312 83.5 309.257812 83.5 309.023438 L 83.5 185.089844 C 83.5 184.859375 83.691406 184.671875 83.921875 184.671875 L 121.042969 184.671875 C 120.183594 184.210938 119.417969 183.570312 118.804688 182.769531 C 117.46875 181.023438 117.03125 178.808594 117.601562 176.6875 L 121.203125 163.652344 L 107.566406 163.652344 C 105.511719 163.652344 103.664062 162.277344 103.078125 160.308594 L 100.292969 151 C 100.226562 150.777344 100.351562 150.542969 100.578125 150.476562 C 100.796875 150.410156 101.03125 150.535156 101.097656 150.757812 L 103.882812 160.070312 C 104.363281 161.683594 105.878906 162.8125 107.566406 162.8125 L 160.867188 162.8125 L 161.496094 163.652344 L 145.722656 163.652344 L 142.339844 175.671875 C 141.835938 177.460938 142.191406 179.34375 143.316406 180.828125 C 144.441406 182.3125 146.152344 183.164062 148.015625 183.164062 L 166.164062 183.164062 C 166.398438 183.164062 166.585938 183.351562 166.585938 183.582031 L 166.585938 184.671875 L 211.390625 184.671875 C 211.621094 184.671875 211.808594 184.859375 211.808594 185.089844 L 211.808594 204.617188 C 223.953125 201.546875 234.289062 198.902344 234.507812 198.84375 C 234.734375 198.785156 234.960938 198.925781 235.015625 199.148438 C 235.074219 199.375 234.941406 199.601562 234.714844 199.660156 C 234.25 199.78125 188.089844 211.589844 175.949219 214.359375 C 169.570312 215.8125 165.074219 218.71875 162.574219 222.992188 C 159.871094 227.625 159.617188 233.742188 161.828125 241.179688 C 166.269531 256.109375 179.199219 293.464844 180.644531 297.632812 L 199.039062 292.261719 L 184.921875 236.878906 C 184.890625 236.753906 184.917969 236.621094 185 236.519531 C 185.078125 236.414062 185.199219 236.355469 185.328125 236.355469 L 229.265625 236.355469 C 233.796875 236.355469 237.921875 236.429688 241.914062 236.5 C 258.628906 236.800781 269.671875 236.996094 275.917969 230.808594 C 280.566406 226.203125 282.582031 217.949219 282.46875 204.046875 C 282.464844 203.8125 282.652344 203.621094 282.882812 203.621094 C 282.882812 203.621094 282.886719 203.621094 282.886719 203.621094 C 283.117188 203.621094 283.304688 203.808594 283.308594 204.039062 C 283.429688 218.1875 281.332031 226.628906 276.507812 231.40625 C 273.65625 234.234375 269.898438 235.777344 265.144531 236.597656 C 265.261719 236.644531 265.355469 236.730469 265.398438 236.855469 L 288.777344 308.894531 C 288.851562 309.117188 288.730469 309.351562 288.507812 309.425781 Z M 167.703125 147.890625 L 155.425781 153.917969 C 155.21875 154.019531 155.132812 154.273438 155.234375 154.480469 C 155.308594 154.628906 155.457031 154.714844 155.613281 154.714844 C 155.671875 154.714844 155.738281 154.703125 155.796875 154.671875 L 168.070312 148.644531 C 168.28125 148.539062 168.367188 148.289062 168.265625 148.082031 C 168.164062 147.875 167.910156 147.785156 167.703125 147.890625 Z M 235.105469 118.453125 C 235.160156 118.632812 235.328125 118.75 235.507812 118.75 C 235.546875 118.75 235.589844 118.746094 235.628906 118.734375 L 253.933594 113.351562 C 254.15625 113.289062 254.28125 113.054688 254.21875 112.828125 C 254.152344 112.609375 253.917969 112.476562 253.695312 112.546875 L 235.390625 117.929688 C 235.167969 117.992188 235.039062 118.226562 235.105469 118.453125 Z M 220.878906 99.15625 L 223.265625 99.089844 L 223.117188 101.984375 C 222.96875 104.769531 224.238281 107.40625 226.5 109.03125 C 228.761719 110.660156 231.664062 111.023438 234.261719 110 L 238.308594 108.402344 L 238.238281 111.953125 C 238.234375 112.183594 238.417969 112.375 238.648438 112.378906 C 238.652344 112.378906 238.652344 112.378906 238.65625 112.378906 C 238.886719 112.378906 239.070312 112.199219 239.078125 111.96875 L 239.160156 107.789062 C 239.164062 107.648438 239.09375 107.515625 238.980469 107.4375 C 238.863281 107.355469 238.714844 107.339844 238.585938 107.386719 L 233.953125 109.214844 C 231.628906 110.136719 229.023438 109.8125 226.992188 108.351562 C 224.960938 106.890625 223.824219 104.527344 223.953125 102.027344 L 224.128906 98.679688 C 224.136719 98.558594 224.089844 98.445312 224.007812 98.363281 C 223.929688 98.277344 223.796875 98.234375 223.699219 98.238281 L 221.683594 98.292969 L 224.28125 94.53125 C 224.328125 94.46875 224.351562 94.394531 224.355469 94.316406 L 224.738281 87.019531 C 224.742188 87.058594 224.75 87.101562 224.769531 87.140625 C 224.882812 87.34375 225.136719 87.425781 225.339844 87.316406 C 225.394531 87.289062 226.707031 86.628906 227.78125 88.304688 C 227.859375 88.425781 227.996094 88.496094 228.132812 88.496094 C 228.210938 88.496094 228.289062 88.472656 228.359375 88.429688 C 228.554688 88.304688 228.613281 88.046875 228.484375 87.847656 C 227.300781 85.996094 225.65625 86.203125 224.949219 86.574219 C 224.851562 86.625 224.78125 86.710938 224.746094 86.8125 L 225.238281 77.410156 L 231.210938 80.160156 C 231.230469 81.648438 231.636719 88.445312 237.253906 91.355469 C 237.363281 91.414062 237.492188 91.417969 237.605469 91.371094 C 237.722656 91.324219 237.808594 91.226562 237.847656 91.109375 L 239.699219 85.246094 C 240.359375 85.214844 242.074219 85.253906 243.160156 86.261719 C 243.863281 86.914062 244.1875 87.878906 244.132812 89.132812 C 244.09375 90.058594 243.875 90.96875 243.476562 91.832031 C 242.257812 94.488281 242.519531 97.621094 244.160156 100 C 245.730469 102.273438 248.195312 103.472656 250.925781 103.292969 C 251.183594 103.277344 251.445312 103.25 251.703125 103.210938 L 251.882812 105.785156 C 251.898438 106.015625 252.101562 106.175781 252.332031 106.175781 C 252.5625 106.15625 252.738281 105.957031 252.722656 105.726562 L 252.511719 102.691406 C 252.503906 102.570312 252.441406 102.460938 252.347656 102.386719 C 252.25 102.3125 252.132812 102.285156 252.011719 102.308594 C 251.636719 102.378906 251.25 102.429688 250.867188 102.453125 C 248.449219 102.617188 246.246094 101.546875 244.851562 99.523438 C 243.378906 97.386719 243.144531 94.574219 244.242188 92.183594 C 244.683594 91.21875 244.929688 90.207031 244.972656 89.171875 C 245.039062 87.65625 244.621094 86.472656 243.726562 85.640625 C 242.082031 84.117188 239.449219 84.417969 239.335938 84.429688 C 239.171875 84.449219 239.035156 84.5625 238.984375 84.71875 L 237.199219 90.367188 C 231.925781 87.25 232.050781 79.980469 232.050781 79.902344 C 232.054688 79.734375 231.960938 79.582031 231.808594 79.511719 L 225.023438 76.386719 C 224.898438 76.332031 224.75 76.339844 224.632812 76.410156 C 224.511719 76.480469 224.4375 76.609375 224.429688 76.75 L 223.523438 94.152344 L 220.519531 98.496094 C 220.429688 98.628906 220.417969 98.796875 220.496094 98.933594 C 220.570312 99.074219 220.707031 99.15625 220.878906 99.15625 Z M 228.035156 100.105469 C 226.898438 101.667969 225.375 101.707031 225.304688 101.707031 C 225.074219 101.707031 224.886719 101.894531 224.886719 102.125 C 224.886719 102.359375 225.074219 102.546875 225.304688 102.546875 C 225.386719 102.546875 227.3125 102.523438 228.714844 100.597656 C 228.851562 100.410156 228.808594 100.148438 228.621094 100.011719 C 228.433594 99.875 228.171875 99.914062 228.035156 100.105469 Z M 230.210938 144.527344 C 230.375 144.695312 230.371094 144.960938 230.203125 145.121094 L 222.449219 152.660156 C 222.367188 152.738281 222.261719 152.777344 222.15625 152.777344 C 222.046875 152.777344 221.9375 152.734375 221.855469 152.652344 C 221.695312 152.484375 221.699219 152.21875 221.863281 152.058594 L 229.617188 144.519531 C 229.785156 144.359375 230.050781 144.363281 230.210938 144.527344 "/>
</g>
<g clip-path="url(#clip4)" clip-rule="nonzero">
<path style=" stroke:none;fill-rule:nonzero;fill:rgb(6.269836%,5.879211%,5.099487%);fill-opacity:1;" d="M 226.464844 93.027344 C 226.820312 93.027344 227.109375 92.742188 227.109375 92.382812 C 227.109375 92.027344 226.820312 91.738281 226.464844 91.738281 C 226.105469 91.738281 225.816406 92.027344 225.816406 92.382812 C 225.816406 92.742188 226.105469 93.027344 226.464844 93.027344 Z M 272.332031 239.574219 C 250.320312 239.574219 228.578125 239.304688 220.5 239.191406 C 218.652344 239.164062 217.359375 237.296875 218.050781 235.582031 C 219.078125 233.054688 221.328125 230.101562 226.246094 230.101562 C 234.863281 230.101562 237.230469 230.101562 243.691406 230.101562 C 256.828125 230.101562 260.492188 197.152344 271.472656 197.152344 C 275.996094 197.152344 281.378906 197.152344 286.117188 197.152344 C 290.855469 197.152344 300.113281 239.574219 272.332031 239.574219 "/>
</g>
</g>
</svg>
