<?xml version="1.0" encoding="UTF-8"?>
<svg xmlns="http://www.w3.org/2000/svg" xmlns:xlink="http://www.w3.org/1999/xlink" width="375pt" height="374.999991pt" viewBox="0 0 375 374.999991" version="1.2">
<defs>
<clipPath id="clip1">
  <path d="M 328 283 L 351.820312 283 L 351.820312 297.417969 L 328 297.417969 Z M 328 283 "/>
</clipPath>
<clipPath id="clip2">
  <path d="M 302 279 L 321 279 L 321 297.417969 L 302 297.417969 Z M 302 279 "/>
</clipPath>
<clipPath id="clip3">
  <path d="M 23.320312 148 L 47 148 L 47 178 L 23.320312 178 Z M 23.320312 148 "/>
</clipPath>
<clipPath id="clip4">
  <path d="M 23.320312 167 L 34 167 L 34 178 L 23.320312 178 Z M 23.320312 167 "/>
</clipPath>
</defs>
<g id="surface1">
<path style=" stroke:none;fill-rule:nonzero;fill:rgb(100%,100%,100%);fill-opacity:1;" d="M 266.113281 241.277344 L 292.363281 241.277344 L 292.363281 267.539062 L 266.113281 267.539062 Z M 266.113281 241.277344 "/>
<path style=" stroke:none;fill-rule:nonzero;fill:rgb(0%,0%,0%);fill-opacity:1;" d="M 43.574219 177.429688 L 35.410156 177.429688 L 35.410156 176.261719 L 43.050781 176.261719 L 51.625 167.625 L 52.5 168.5 Z M 43.574219 177.429688 "/>
<path style=" stroke:none;fill-rule:nonzero;fill:rgb(0%,0%,0%);fill-opacity:1;" d="M 58.449219 148.832031 L 59.617188 148.832031 L 59.617188 209.351562 L 58.449219 209.351562 Z M 58.449219 148.832031 "/>
<path style=" stroke:none;fill-rule:nonzero;fill:rgb(61.569214%,4.708862%,4.708862%);fill-opacity:1;" d="M 127.222656 236.722656 L 132.238281 236.722656 L 149.039062 267.945312 L 144.664062 273.433594 L 115.789062 273.433594 L 110.539062 266.894531 Z M 127.222656 236.722656 "/>
<path style=" stroke:none;fill-rule:nonzero;fill:rgb(15.289307%,72.158813%,65.489197%);fill-opacity:1;" d="M 231.582031 127.003906 L 232.398438 93.214844 L 221.664062 91.929688 L 213.378906 100.683594 L 214.253906 102.84375 L 205.855469 113.523438 Z M 231.582031 127.003906 "/>
<path style=" stroke:none;fill-rule:nonzero;fill:rgb(100%,74.119568%,34.899902%);fill-opacity:1;" d="M 87.964844 177.605469 C 87.964844 178.351562 87.929688 179.09375 87.855469 179.835938 C 87.785156 180.578125 87.675781 181.3125 87.527344 182.042969 C 87.382812 182.777344 87.203125 183.496094 86.984375 184.210938 C 86.769531 184.925781 86.519531 185.625 86.234375 186.3125 C 85.949219 187.003906 85.628906 187.675781 85.28125 188.332031 C 84.929688 188.992188 84.546875 189.628906 84.132812 190.25 C 83.71875 190.871094 83.273438 191.46875 82.800781 192.042969 C 82.328125 192.621094 81.828125 193.171875 81.300781 193.699219 C 80.777344 194.226562 80.222656 194.726562 79.648438 195.199219 C 79.074219 195.671875 78.476562 196.113281 77.855469 196.527344 C 77.234375 196.941406 76.597656 197.324219 75.941406 197.675781 C 75.28125 198.027344 74.609375 198.347656 73.921875 198.632812 C 73.234375 198.917969 72.53125 199.167969 71.820312 199.386719 C 71.105469 199.601562 70.386719 199.78125 69.65625 199.925781 C 68.921875 200.074219 68.1875 200.183594 67.445312 200.253906 C 66.703125 200.328125 65.960938 200.363281 65.214844 200.363281 C 64.472656 200.363281 63.726562 200.328125 62.988281 200.253906 C 62.246094 200.183594 61.507812 200.074219 60.777344 199.925781 C 60.046875 199.78125 59.324219 199.601562 58.613281 199.386719 C 57.898438 199.167969 57.199219 198.917969 56.511719 198.632812 C 55.820312 198.347656 55.148438 198.027344 54.492188 197.675781 C 53.835938 197.324219 53.195312 196.941406 52.578125 196.527344 C 51.957031 196.113281 51.359375 195.671875 50.785156 195.199219 C 50.207031 194.726562 49.65625 194.226562 49.128906 193.699219 C 48.601562 193.171875 48.101562 192.621094 47.628906 192.042969 C 47.15625 191.46875 46.714844 190.871094 46.300781 190.25 C 45.886719 189.628906 45.503906 188.992188 45.152344 188.332031 C 44.800781 187.675781 44.484375 187.003906 44.199219 186.3125 C 43.914062 185.625 43.664062 184.925781 43.445312 184.210938 C 43.230469 183.496094 43.050781 182.777344 42.902344 182.042969 C 42.757812 181.3125 42.648438 180.578125 42.574219 179.835938 C 42.503906 179.09375 42.464844 178.351562 42.464844 177.605469 C 42.464844 176.859375 42.503906 176.113281 42.574219 175.375 C 42.648438 174.632812 42.757812 173.894531 42.902344 173.164062 C 43.050781 172.433594 43.230469 171.710938 43.445312 170.996094 C 43.664062 170.285156 43.914062 169.582031 44.199219 168.894531 C 44.484375 168.207031 44.800781 167.53125 45.152344 166.875 C 45.503906 166.21875 45.886719 165.578125 46.300781 164.960938 C 46.714844 164.339844 47.15625 163.742188 47.628906 163.164062 C 48.101562 162.589844 48.601562 162.039062 49.128906 161.511719 C 49.65625 160.984375 50.207031 160.484375 50.785156 160.011719 C 51.359375 159.539062 51.957031 159.09375 52.578125 158.679688 C 53.195312 158.265625 53.835938 157.882812 54.492188 157.53125 C 55.148438 157.179688 55.820312 156.863281 56.511719 156.574219 C 57.199219 156.289062 57.898438 156.039062 58.613281 155.824219 C 59.324219 155.605469 60.046875 155.425781 60.777344 155.28125 C 61.507812 155.136719 62.246094 155.027344 62.988281 154.953125 C 63.726562 154.878906 64.472656 154.84375 65.214844 154.84375 C 65.960938 154.84375 66.703125 154.878906 67.445312 154.953125 C 68.1875 155.027344 68.921875 155.136719 69.65625 155.28125 C 70.386719 155.425781 71.105469 155.605469 71.820312 155.824219 C 72.53125 156.039062 73.234375 156.289062 73.921875 156.574219 C 74.609375 156.863281 75.28125 157.179688 75.941406 157.53125 C 76.597656 157.882812 77.234375 158.265625 77.855469 158.679688 C 78.476562 159.09375 79.074219 159.539062 79.648438 160.011719 C 80.222656 160.484375 80.777344 160.984375 81.300781 161.511719 C 81.828125 162.039062 82.328125 162.589844 82.800781 163.164062 C 83.273438 163.742188 83.71875 164.339844 84.132812 164.960938 C 84.546875 165.578125 84.929688 166.21875 85.28125 166.875 C 85.628906 167.53125 85.949219 168.207031 86.234375 168.894531 C 86.519531 169.582031 86.769531 170.285156 86.984375 170.996094 C 87.203125 171.710938 87.382812 172.433594 87.527344 173.164062 C 87.675781 173.894531 87.785156 174.632812 87.855469 175.375 C 87.929688 176.113281 87.964844 176.859375 87.964844 177.605469 Z M 87.964844 177.605469 "/>
<path style=" stroke:none;fill-rule:nonzero;fill:rgb(100%,74.119568%,34.899902%);fill-opacity:1;" d="M 307.644531 198.847656 L 322.34375 214.898438 L 306.597656 223.242188 Z M 307.644531 198.847656 "/>
<path style=" stroke:none;fill-rule:nonzero;fill:rgb(100%,74.119568%,34.899902%);fill-opacity:1;" d="M 298.195312 185.308594 L 305.3125 190.152344 L 309.222656 204.566406 L 298.195312 208.070312 Z M 298.195312 185.308594 "/>
<path style=" stroke:none;fill-rule:nonzero;fill:rgb(0%,0%,0%);fill-opacity:1;" d="M 193.371094 138.621094 L 298.195312 138.621094 L 298.195312 139.785156 L 193.371094 139.785156 Z M 193.371094 138.621094 "/>
<path style=" stroke:none;fill-rule:nonzero;fill:rgb(0%,0%,0%);fill-opacity:1;" d="M 64.867188 138.621094 L 179.199219 138.621094 L 179.199219 139.785156 L 64.867188 139.785156 Z M 64.867188 138.621094 "/>
<path style=" stroke:none;fill-rule:nonzero;fill:rgb(100%,74.119568%,34.899902%);fill-opacity:1;" d="M 269.03125 133.367188 C 269.03125 133.753906 268.957031 134.125 268.808594 134.484375 C 268.660156 134.839844 268.449219 135.15625 268.175781 135.429688 C 267.902344 135.703125 267.585938 135.914062 267.230469 136.0625 C 266.871094 136.210938 266.5 136.285156 266.113281 136.285156 C 265.726562 136.285156 265.355469 136.210938 264.996094 136.0625 C 264.640625 135.914062 264.324219 135.703125 264.050781 135.429688 C 263.777344 135.15625 263.566406 134.839844 263.417969 134.484375 C 263.269531 134.125 263.195312 133.753906 263.195312 133.367188 C 263.195312 132.980469 263.269531 132.609375 263.417969 132.25 C 263.566406 131.894531 263.777344 131.578125 264.050781 131.304688 C 264.324219 131.03125 264.640625 130.820312 264.996094 130.671875 C 265.355469 130.523438 265.726562 130.449219 266.113281 130.449219 C 266.5 130.449219 266.871094 130.523438 267.230469 130.671875 C 267.585938 130.820312 267.902344 131.03125 268.175781 131.304688 C 268.449219 131.578125 268.660156 131.894531 268.808594 132.25 C 268.957031 132.609375 269.03125 132.980469 269.03125 133.367188 Z M 269.03125 133.367188 "/>
<path style=" stroke:none;fill-rule:nonzero;fill:rgb(61.569214%,4.708862%,4.708862%);fill-opacity:1;" d="M 277.78125 133.367188 C 277.78125 133.753906 277.707031 134.125 277.558594 134.484375 C 277.410156 134.839844 277.199219 135.15625 276.925781 135.429688 C 276.652344 135.703125 276.335938 135.914062 275.980469 136.0625 C 275.621094 136.210938 275.25 136.285156 274.863281 136.285156 C 274.476562 136.285156 274.105469 136.210938 273.746094 136.0625 C 273.390625 135.914062 273.074219 135.703125 272.800781 135.429688 C 272.527344 135.15625 272.316406 134.839844 272.167969 134.484375 C 272.019531 134.125 271.945312 133.753906 271.945312 133.367188 C 271.945312 132.980469 272.019531 132.609375 272.167969 132.25 C 272.316406 131.894531 272.527344 131.578125 272.800781 131.304688 C 273.074219 131.03125 273.390625 130.820312 273.746094 130.671875 C 274.105469 130.523438 274.476562 130.449219 274.863281 130.449219 C 275.25 130.449219 275.621094 130.523438 275.980469 130.671875 C 276.335938 130.820312 276.652344 131.03125 276.925781 131.304688 C 277.199219 131.578125 277.410156 131.894531 277.558594 132.25 C 277.707031 132.609375 277.78125 132.980469 277.78125 133.367188 Z M 277.78125 133.367188 "/>
<path style=" stroke:none;fill-rule:nonzero;fill:rgb(15.289307%,72.158813%,65.489197%);fill-opacity:1;" d="M 286.53125 133.367188 C 286.53125 133.753906 286.457031 134.125 286.308594 134.484375 C 286.160156 134.839844 285.949219 135.15625 285.675781 135.429688 C 285.402344 135.703125 285.085938 135.914062 284.730469 136.0625 C 284.371094 136.210938 284 136.285156 283.613281 136.285156 C 283.226562 136.285156 282.855469 136.210938 282.496094 136.0625 C 282.140625 135.914062 281.824219 135.703125 281.550781 135.429688 C 281.277344 135.15625 281.066406 134.839844 280.917969 134.484375 C 280.769531 134.125 280.695312 133.753906 280.695312 133.367188 C 280.695312 132.980469 280.769531 132.609375 280.917969 132.25 C 281.066406 131.894531 281.277344 131.578125 281.550781 131.304688 C 281.824219 131.03125 282.140625 130.820312 282.496094 130.671875 C 282.855469 130.523438 283.226562 130.449219 283.613281 130.449219 C 284 130.449219 284.371094 130.523438 284.730469 130.671875 C 285.085938 130.820312 285.402344 131.03125 285.675781 131.304688 C 285.949219 131.578125 286.160156 131.894531 286.308594 132.25 C 286.457031 132.609375 286.53125 132.980469 286.53125 133.367188 Z M 286.53125 133.367188 "/>
<path style=" stroke:none;fill-rule:nonzero;fill:rgb(0%,0%,0%);fill-opacity:1;" d="M 190.980469 111.074219 L 184.5625 109.265625 L 177.621094 111.714844 L 154.230469 150.175781 L 160.941406 154.84375 L 180.890625 133.132812 L 184.15625 115.101562 Z M 190.980469 111.074219 "/>
<path style=" stroke:none;fill-rule:nonzero;fill:rgb(0%,0%,0%);fill-opacity:1;" d="M 191.480469 142.535156 L 198.683594 123.609375 L 199.773438 124.023438 L 192.570312 142.949219 Z M 191.480469 142.535156 "/>
<path style=" stroke:none;fill-rule:nonzero;fill:rgb(0%,0%,0%);fill-opacity:1;" d="M 183.046875 167.859375 L 174.179688 163.65625 L 182.929688 115.160156 L 193.957031 108.621094 L 211.574219 117.84375 L 211.046875 118.894531 L 194.015625 109.964844 L 183.980469 115.859375 L 175.464844 163.015625 L 182.40625 166.28125 L 190.457031 145.214844 L 191.5625 145.621094 Z M 183.046875 167.859375 "/>
<path style=" stroke:none;fill-rule:nonzero;fill:rgb(0%,0%,0%);fill-opacity:1;" d="M 326.777344 287.089844 L 306.886719 247.929688 L 307.9375 247.402344 L 327.363281 285.628906 L 336.460938 282.476562 L 327.828125 256.800781 L 329.054688 253.296875 L 322.578125 231.644531 L 323.6875 231.296875 L 330.21875 253.296875 L 329.113281 256.800781 L 337.980469 283.238281 Z M 326.777344 287.089844 "/>
<path style=" stroke:none;fill-rule:nonzero;fill:rgb(0%,0%,0%);fill-opacity:1;" d="M 318.527344 218.214844 L 319.644531 217.878906 L 322.875 228.667969 L 321.757812 229.003906 Z M 318.527344 218.214844 "/>
<g clip-path="url(#clip1)" clip-rule="nonzero">
<path style=" stroke:none;fill-rule:nonzero;fill:rgb(0%,0%,0%);fill-opacity:1;" d="M 328.9375 285.746094 L 331.386719 292.515625 L 331.386719 297.417969 L 351.628906 297.417969 L 349.996094 294.675781 L 346.84375 294.441406 L 336.871094 290.183594 L 335.527344 283.46875 Z M 328.9375 285.746094 "/>
</g>
<path style=" stroke:none;fill-rule:nonzero;fill:rgb(0%,0%,0%);fill-opacity:1;" d="M 329.578125 283.003906 L 318.378906 253.066406 L 316.335938 253.066406 L 317.386719 250.789062 L 308.113281 229.019531 L 308.636719 228.84375 L 318.027344 250.847656 L 317.269531 252.480469 L 318.730469 252.480469 L 330.105469 282.828125 Z M 329.578125 283.003906 "/>
<path style=" stroke:none;fill-rule:nonzero;fill:rgb(0%,0%,0%);fill-opacity:1;" d="M 300.355469 207.660156 L 300.179688 207.132812 L 308.871094 204.390625 L 305.835938 193.476562 L 306.363281 193.304688 L 309.570312 204.742188 Z M 300.355469 207.660156 "/>
<path style=" stroke:none;fill-rule:nonzero;fill:rgb(0%,0%,0%);fill-opacity:1;" d="M 300.996094 279.910156 L 286.589844 277.460938 L 284.664062 273.664062 L 285.714844 273.199219 L 287.347656 276.410156 L 300.355469 278.625 L 302.6875 273.957031 L 307.472656 243.433594 L 305.371094 237.890625 L 306.828125 205.09375 L 307.996094 205.152344 L 306.539062 237.714844 L 308.695312 243.316406 L 308.695312 243.433594 L 303.855469 274.367188 Z M 300.996094 279.910156 "/>
<path style=" stroke:none;fill-rule:nonzero;fill:rgb(0%,0%,0%);fill-opacity:1;" d="M 301.261719 253.023438 L 301.421875 252.460938 L 308.148438 254.398438 L 307.988281 254.960938 Z M 301.261719 253.023438 "/>
<path style=" stroke:none;fill-rule:nonzero;fill:rgb(0%,0%,0%);fill-opacity:1;" d="M 300.5625 257 L 300.722656 256.4375 L 307.503906 258.390625 L 307.34375 258.953125 Z M 300.5625 257 "/>
<path style=" stroke:none;fill-rule:nonzero;fill:rgb(0%,0%,0%);fill-opacity:1;" d="M 300.292969 261.054688 L 300.453125 260.492188 L 307.234375 262.449219 L 307.074219 263.007812 Z M 300.292969 261.054688 "/>
<path style=" stroke:none;fill-rule:nonzero;fill:rgb(0%,0%,0%);fill-opacity:1;" d="M 311.613281 255.925781 L 307.121094 279.445312 L 315.753906 285.570312 L 320.886719 274.132812 Z M 311.613281 255.925781 "/>
<g clip-path="url(#clip2)" clip-rule="nonzero">
<path style=" stroke:none;fill-rule:nonzero;fill:rgb(0%,0%,0%);fill-opacity:1;" d="M 309.277344 279.269531 L 306.070312 287.320312 L 302.6875 289.832031 L 308.347656 297.417969 L 320.539062 297.417969 L 319.078125 294.96875 L 313.070312 293.683594 L 311.554688 288.78125 L 314.703125 282.304688 Z M 309.277344 279.269531 "/>
</g>
<path style=" stroke:none;fill-rule:nonzero;fill:rgb(0%,0%,0%);fill-opacity:1;" d="M 303.15625 187.175781 L 302.046875 180.8125 L 306.710938 179.238281 L 305.429688 174.453125 L 307.355469 172.410156 L 304.496094 168.441406 L 305.429688 167.742188 L 308.871094 172.527344 L 306.710938 174.746094 L 308.113281 179.996094 L 303.386719 181.632812 L 304.261719 186.941406 Z M 303.15625 187.175781 "/>
<path style=" stroke:none;fill-rule:nonzero;fill:rgb(0%,0%,0%);fill-opacity:1;" d="M 298.78125 171.828125 L 297.613281 171.828125 L 297.613281 128.113281 L 260.863281 128.113281 L 260.863281 126.945312 L 298.78125 126.945312 Z M 298.78125 171.828125 "/>
<path style=" stroke:none;fill-rule:nonzero;fill:rgb(0%,0%,0%);fill-opacity:1;" d="M 198.507812 126.945312 L 254.972656 126.945312 L 254.972656 128.113281 L 198.507812 128.113281 Z M 198.507812 126.945312 "/>
<path style=" stroke:none;fill-rule:nonzero;fill:rgb(0%,0%,0%);fill-opacity:1;" d="M 231.582031 85.21875 L 231.582031 84.050781 C 232.570312 84.050781 233.445312 83.234375 233.445312 82.183594 C 233.445312 81.191406 232.628906 80.316406 231.582031 80.316406 C 230.589844 80.316406 229.714844 81.132812 229.714844 82.183594 L 228.546875 82.183594 C 228.546875 80.492188 229.890625 79.148438 231.582031 79.148438 C 233.273438 79.148438 234.613281 80.492188 234.613281 82.183594 C 234.613281 83.878906 233.214844 85.21875 231.582031 85.21875 Z M 231.582031 85.21875 "/>
<path style=" stroke:none;fill-rule:nonzero;fill:rgb(0%,0%,0%);fill-opacity:1;" d="M 139.125 227.035156 L 139.125 225.867188 C 140.640625 225.867188 141.863281 224.644531 141.863281 223.125 C 141.863281 221.609375 140.640625 220.382812 139.125 220.382812 C 137.605469 220.382812 136.382812 221.609375 136.382812 223.125 L 135.214844 223.125 C 135.214844 220.964844 136.964844 219.214844 139.125 219.214844 C 141.28125 219.214844 143.03125 220.964844 143.03125 223.125 C 143.03125 225.285156 141.28125 227.035156 139.125 227.035156 Z M 139.125 227.035156 "/>
<path style=" stroke:none;fill-rule:nonzero;fill:rgb(0%,0%,0%);fill-opacity:1;" d="M 120.28125 227.035156 C 118.125 227.035156 116.375 225.285156 116.375 223.125 C 116.375 220.964844 118.125 219.214844 120.28125 219.214844 C 122.441406 219.214844 124.191406 220.964844 124.191406 223.125 L 123.023438 223.125 C 123.023438 221.609375 121.796875 220.382812 120.28125 220.382812 C 118.765625 220.382812 117.539062 221.609375 117.539062 223.125 C 117.539062 224.644531 118.765625 225.867188 120.28125 225.867188 Z M 120.28125 227.035156 "/>
<path style=" stroke:none;fill-rule:nonzero;fill:rgb(0%,0%,0%);fill-opacity:1;" d="M 300.414062 168.089844 L 300.179688 166.925781 C 300.472656 166.867188 307.0625 165.289062 309.804688 156.535156 L 310.914062 156.886719 C 307.9375 166.339844 300.703125 168.03125 300.414062 168.089844 Z M 300.414062 168.089844 "/>
<path style=" stroke:none;fill-rule:nonzero;fill:rgb(0%,0%,0%);fill-opacity:1;" d="M 300.53125 165 L 300.121094 163.890625 L 300.355469 164.414062 L 300.121094 163.890625 C 300.296875 163.832031 304.261719 162.253906 304.847656 157.351562 L 306.011719 157.46875 C 305.3125 163.074219 300.703125 164.941406 300.53125 165 Z M 300.53125 165 "/>
<path style=" stroke:none;fill-rule:nonzero;fill:rgb(0%,0%,0%);fill-opacity:1;" d="M 303.738281 178.421875 C 303.386719 178.421875 303.097656 178.363281 302.863281 178.246094 C 302.164062 177.894531 301.988281 177.253906 301.929688 177.253906 L 302.511719 177.078125 L 302.222656 177.195312 L 302.511719 177.078125 C 302.511719 177.078125 302.6875 177.546875 303.15625 177.722656 C 303.5625 177.894531 304.085938 177.894531 304.671875 177.664062 L 304.847656 178.1875 C 304.4375 178.363281 304.085938 178.421875 303.738281 178.421875 Z M 303.738281 178.421875 "/>
<path style=" stroke:none;fill-rule:nonzero;fill:rgb(0%,0%,0%);fill-opacity:1;" d="M 179.488281 163.421875 L 178.90625 163.246094 L 188.0625 134.007812 L 189.640625 133.25 L 188.121094 130.449219 L 194.246094 116.558594 L 213.496094 125.429688 L 213.265625 125.957031 L 194.539062 117.316406 L 188.824219 130.449219 L 190.457031 133.484375 L 188.53125 134.417969 Z M 179.488281 163.421875 "/>
<path style=" stroke:none;fill-rule:nonzero;fill:rgb(15.289307%,72.158813%,65.489197%);fill-opacity:1;" d="M 221.664062 91.929688 L 212.097656 95.722656 L 215.304688 102.320312 Z M 221.664062 91.929688 "/>
<path style=" stroke:none;fill-rule:nonzero;fill:rgb(15.289307%,72.158813%,65.489197%);fill-opacity:1;" d="M 232.398438 93.214844 L 239.804688 100.511719 L 230.0625 104.945312 Z M 232.398438 93.214844 "/>
<path style=" stroke:none;fill-rule:nonzero;fill:rgb(0%,0%,0%);fill-opacity:1;" d="M 225.980469 91.582031 L 224.871094 91.289062 L 225.570312 88.429688 L 223.238281 86.679688 L 223.707031 82.359375 L 222.65625 81.015625 L 224.871094 77.808594 L 225.863281 78.449219 L 224.113281 80.960938 L 224.929688 82.007812 L 224.464844 86.152344 L 226.914062 87.960938 Z M 225.980469 91.582031 "/>
<path style=" stroke:none;fill-rule:nonzero;fill:rgb(0%,0%,0%);fill-opacity:1;" d="M 226.332031 85.335938 C 226.097656 85.335938 225.804688 85.277344 225.628906 85.21875 L 225.804688 84.695312 L 225.6875 84.984375 L 225.804688 84.695312 C 225.921875 84.753906 226.972656 85.042969 227.4375 84.050781 L 227.964844 84.285156 C 227.613281 85.042969 226.914062 85.335938 226.332031 85.335938 Z M 226.332031 85.335938 "/>
<path style=" stroke:none;fill-rule:nonzero;fill:rgb(0%,0%,0%);fill-opacity:1;" d="M 216.996094 104.1875 C 215.832031 104.1875 214.839844 103.894531 214.140625 103.253906 C 213.03125 102.261719 213.03125 100.742188 213.03125 100.683594 L 213.03125 100.566406 L 218.046875 95.664062 L 218.457031 96.074219 L 213.613281 100.800781 C 213.613281 101.152344 213.789062 102.085938 214.546875 102.785156 C 215.246094 103.429688 216.355469 103.660156 217.8125 103.542969 L 217.871094 104.128906 C 217.582031 104.128906 217.289062 104.1875 216.996094 104.1875 Z M 216.996094 104.1875 "/>
<path style=" stroke:none;fill-rule:nonzero;fill:rgb(0%,0%,0%);fill-opacity:1;" d="M 234.671875 103.136719 L 234.4375 102.609375 L 239.28125 100.394531 L 234.90625 96.074219 L 235.3125 95.664062 L 240.332031 100.566406 Z M 234.671875 103.136719 "/>
<path style=" stroke:none;fill-rule:nonzero;fill:rgb(0%,0%,0%);fill-opacity:1;" d="M 175.988281 163.890625 L 174.824219 170.074219 L 163.914062 175.328125 L 160.238281 174.976562 L 160.238281 177.78125 L 167.121094 179.996094 L 180.191406 177.136719 L 179.605469 173.109375 L 181.589844 166.515625 Z M 175.988281 163.890625 "/>
<path style=" stroke:none;fill-rule:nonzero;fill:rgb(0%,0%,0%);fill-opacity:1;" d="M 156.039062 150.582031 L 152.65625 155.835938 L 143.5 153.734375 L 140.757812 151.925781 L 138.25 152.507812 L 140.582031 156.011719 L 154.582031 163.304688 L 156.15625 158.402344 L 160.707031 153.441406 Z M 156.039062 150.582031 "/>
<path style=" stroke:none;fill-rule:nonzero;fill:rgb(0%,0%,0%);fill-opacity:1;" d="M 260.105469 130.039062 L 256.136719 130.039062 L 253.28125 126.246094 L 254.214844 125.546875 L 256.722656 128.875 L 258.238281 128.875 L 255.554688 123.445312 L 249.429688 125.957031 L 245.171875 116.035156 L 243.363281 114.925781 L 236.65625 101.96875 L 237.707031 101.386719 L 244.238281 114.109375 L 246.105469 115.273438 L 250.011719 124.4375 L 256.078125 121.929688 Z M 260.105469 130.039062 "/>
<path style=" stroke:none;fill-rule:nonzero;fill:rgb(0%,0%,0%);fill-opacity:1;" d="M 262.554688 129.222656 L 258.761719 129.222656 L 258.761719 128.054688 L 260.511719 128.054688 L 258.179688 124.203125 L 256.839844 124.847656 L 256.371094 123.796875 L 258.589844 122.6875 Z M 262.554688 129.222656 "/>
<path style=" stroke:none;fill-rule:nonzero;fill:rgb(0%,0%,0%);fill-opacity:1;" d="M 245.636719 127.414062 L 244.472656 127.414062 L 244.472656 125.664062 L 239.570312 118.25 L 238.230469 114.867188 L 233.503906 106.636719 L 234.496094 106.054688 L 239.28125 114.398438 L 240.621094 117.785156 L 245.636719 125.3125 Z M 245.636719 127.414062 "/>
<path style=" stroke:none;fill-rule:nonzero;fill:rgb(0%,0%,0%);fill-opacity:1;" d="M 195.355469 109.730469 L 194.65625 108.796875 L 197.6875 106.460938 L 199.089844 106.460938 L 212.390625 97.765625 L 212.972656 98.757812 L 199.4375 107.628906 L 198.097656 107.628906 Z M 195.355469 109.730469 "/>
<path style=" stroke:none;fill-rule:nonzero;fill:rgb(0%,0%,0%);fill-opacity:1;" d="M 263.3125 127.824219 L 262.261719 127.238281 L 262.847656 126.304688 L 259.464844 125.957031 L 259.578125 124.789062 L 264.714844 125.3125 Z M 263.3125 127.824219 "/>
<path style=" stroke:none;fill-rule:nonzero;fill:rgb(0%,0%,0%);fill-opacity:1;" d="M 299.945312 162.429688 L 299.421875 161.378906 L 299.710938 161.90625 L 299.421875 161.378906 C 299.480469 161.320312 301.054688 160.503906 301.40625 158.34375 L 302.570312 158.519531 C 302.105469 161.320312 300.003906 162.371094 299.945312 162.429688 Z M 299.945312 162.429688 "/>
<path style=" stroke:none;fill-rule:nonzero;fill:rgb(15.289307%,72.158813%,65.489197%);fill-opacity:1;" d="M 232.515625 207.660156 L 286.53125 207.660156 L 286.53125 261.703125 L 232.515625 261.703125 Z M 232.515625 207.660156 "/>
<path style=" stroke:none;fill-rule:nonzero;fill:rgb(0%,0%,0%);fill-opacity:1;" d="M 233.15625 227.152344 C 222.65625 227.152344 214.082031 218.574219 214.082031 208.070312 C 214.082031 197.5625 222.65625 188.984375 233.15625 188.984375 C 236.945312 188.984375 240.679688 190.09375 243.832031 192.253906 L 243.1875 193.246094 C 240.214844 191.261719 236.773438 190.210938 233.214844 190.210938 C 223.355469 190.210938 215.304688 198.265625 215.304688 208.125 C 215.304688 217.988281 223.355469 226.042969 233.214844 226.042969 C 243.070312 226.042969 251.121094 217.988281 251.121094 208.125 C 251.121094 203.515625 249.371094 199.140625 246.164062 195.753906 L 246.980469 194.9375 C 250.363281 198.496094 252.230469 203.167969 252.230469 208.125 C 252.230469 218.574219 243.65625 227.152344 233.15625 227.152344 Z M 233.15625 227.152344 "/>
<path style=" stroke:none;fill-rule:nonzero;fill:rgb(0%,0%,0%);fill-opacity:1;" d="M 199.914062 111.53125 L 207.4375 106.617188 L 208.074219 107.59375 L 200.554688 112.507812 Z M 199.914062 111.53125 "/>
<path style=" stroke:none;fill-rule:nonzero;fill:rgb(0%,0%,0%);fill-opacity:1;" d="M 129.613281 227.386719 C 129.558594 227.386719 129.441406 227.386719 129.382812 227.386719 C 127.808594 227.269531 126.875 225.984375 126.816406 225.925781 L 127.28125 225.578125 C 127.28125 225.578125 128.15625 226.683594 129.441406 226.800781 C 130.316406 226.859375 131.25 226.453125 132.125 225.519531 L 132.53125 225.925781 C 131.597656 226.917969 130.605469 227.386719 129.613281 227.386719 Z M 129.613281 227.386719 "/>
<path style=" stroke:none;fill-rule:nonzero;fill:rgb(0%,0%,0%);fill-opacity:1;" d="M 128.332031 235.324219 L 127.164062 235.324219 L 127.164062 232.230469 L 123.023438 230.480469 L 123.023438 225.75 L 124.191406 225.75 L 124.191406 229.660156 L 128.332031 231.472656 Z M 128.332031 235.324219 "/>
<path style=" stroke:none;fill-rule:nonzero;fill:rgb(0%,0%,0%);fill-opacity:1;" d="M 129.613281 224.585938 L 127.980469 223.765625 L 129.265625 221.667969 L 129.730469 221.957031 L 128.796875 223.535156 L 129.847656 224.058594 Z M 129.613281 224.585938 "/>
<path style=" stroke:none;fill-rule:nonzero;fill:rgb(61.569214%,4.708862%,4.708862%);fill-opacity:1;" d="M 127.222656 236.722656 L 115.324219 245.300781 L 129.730469 255.105469 Z M 127.222656 236.722656 "/>
<path style=" stroke:none;fill-rule:nonzero;fill:rgb(61.569214%,4.708862%,4.708862%);fill-opacity:1;" d="M 132.238281 236.722656 L 144.082031 245.300781 L 129.730469 255.105469 Z M 132.238281 236.722656 "/>
<path style=" stroke:none;fill-rule:nonzero;fill:rgb(0%,0%,0%);fill-opacity:1;" d="M 120.367188 248.769531 L 123.328125 243.273438 L 123.839844 243.546875 L 120.878906 249.042969 Z M 120.367188 248.769531 "/>
<path style=" stroke:none;fill-rule:nonzero;fill:rgb(0%,0%,0%);fill-opacity:1;" d="M 140.230469 248.277344 L 139.882812 247.8125 L 143.558594 245.300781 L 140.347656 242.96875 L 140.699219 242.5 L 144.605469 245.300781 Z M 140.230469 248.277344 "/>
<path style=" stroke:none;fill-rule:nonzero;fill:rgb(0%,0%,0%);fill-opacity:1;" d="M 267.628906 82.300781 C 260.804688 76 254.273438 77.632812 247.914062 79.265625 C 246.339844 79.675781 244.707031 80.082031 243.070312 80.375 C 232.339844 82.183594 230.414062 72.671875 230.355469 72.613281 L 231.523438 72.378906 C 231.582031 72.730469 233.332031 80.84375 242.898438 79.207031 C 244.414062 78.976562 245.988281 78.566406 247.621094 78.15625 C 253.921875 76.582031 261.097656 74.714844 268.386719 81.484375 Z M 267.628906 82.300781 "/>
<path style=" stroke:none;fill-rule:nonzero;fill:rgb(0%,0%,0%);fill-opacity:1;" d="M 240.738281 75.414062 C 239.863281 75.414062 239.046875 75.238281 238.289062 74.890625 C 236.128906 73.898438 235.488281 71.855469 235.429688 71.738281 L 236.539062 71.386719 C 236.539062 71.386719 237.0625 73.082031 238.753906 73.839844 C 240.214844 74.480469 242.136719 74.304688 244.414062 73.3125 L 244.589844 73.253906 C 251.472656 70.222656 261.914062 65.667969 271.828125 73.605469 L 271.070312 74.539062 C 261.738281 67.070312 252.113281 71.269531 245.054688 74.363281 L 244.878906 74.421875 C 243.363281 75.066406 241.964844 75.414062 240.738281 75.414062 Z M 240.738281 75.414062 "/>
<path style=" stroke:none;fill-rule:nonzero;fill:rgb(0%,0%,0%);fill-opacity:1;" d="M 261.039062 89.128906 C 258.820312 85.277344 255.03125 82.066406 242.957031 85.101562 C 238.988281 86.09375 235.664062 85.863281 233.039062 84.402344 L 233.621094 83.410156 C 235.957031 84.753906 239.046875 84.925781 242.664062 83.992188 C 255.554688 80.785156 259.695312 84.460938 262.03125 88.546875 Z M 261.039062 89.128906 "/>
<path style=" stroke:none;fill-rule:nonzero;fill:rgb(0%,0%,0%);fill-opacity:1;" d="M 229.363281 80.785156 C 227.378906 77.515625 227.207031 73.839844 227.207031 73.722656 L 228.371094 73.664062 C 228.371094 73.722656 228.546875 77.164062 230.355469 80.199219 Z M 229.363281 80.785156 "/>
<path style=" stroke:none;fill-rule:nonzero;fill:rgb(0%,0%,0%);fill-opacity:1;" d="M 253.222656 94.03125 C 251.003906 89.714844 245.347656 89.246094 240.621094 90.761719 C 234.964844 92.574219 233.097656 89.304688 232.980469 89.1875 L 233.972656 88.605469 C 234.03125 88.722656 235.546875 91.171875 240.214844 89.65625 C 245.347656 88.019531 251.648438 88.546875 254.15625 93.507812 Z M 253.222656 94.03125 "/>
<path style=" stroke:none;fill-rule:nonzero;fill:rgb(0%,0%,0%);fill-opacity:1;" d="M 292.597656 279.851562 L 238.8125 279.851562 L 238.8125 278.683594 L 292.128906 278.683594 L 293.238281 277.574219 L 294.054688 278.394531 Z M 292.597656 279.851562 "/>
<path style=" stroke:none;fill-rule:nonzero;fill:rgb(0%,0%,0%);fill-opacity:1;" d="M 228.898438 278.683594 L 235.898438 278.683594 L 235.898438 279.851562 L 228.898438 279.851562 Z M 228.898438 278.683594 "/>
<path style=" stroke:none;fill-rule:nonzero;fill:rgb(0%,0%,0%);fill-opacity:1;" d="M 223.0625 279.851562 L 58.449219 279.851562 L 58.449219 212.328125 L 59.617188 212.328125 L 59.617188 278.683594 L 223.0625 278.683594 Z M 223.0625 279.851562 "/>
<path style=" stroke:none;fill-rule:nonzero;fill:rgb(0%,0%,0%);fill-opacity:1;" d="M 59.617188 148.832031 L 58.449219 148.832031 L 58.449219 133.132812 L 64.632812 126.945312 L 147.816406 126.945312 L 147.816406 128.113281 L 65.097656 128.113281 L 59.617188 133.601562 Z M 59.617188 148.832031 "/>
<path style=" stroke:none;fill-rule:nonzero;fill:rgb(0%,0%,0%);fill-opacity:1;" d="M 150.730469 126.945312 L 173.480469 126.945312 L 173.480469 128.113281 L 150.730469 128.113281 Z M 150.730469 126.945312 "/>
<path style=" stroke:none;fill-rule:nonzero;fill:rgb(0%,0%,0%);fill-opacity:1;" d="M 100.972656 274.015625 L 64.28125 274.015625 L 64.28125 127.53125 L 65.449219 127.53125 L 65.449219 272.847656 L 100.972656 272.847656 Z M 100.972656 274.015625 "/>
<path style=" stroke:none;fill-rule:nonzero;fill:rgb(0%,0%,0%);fill-opacity:1;" d="M 115.789062 272.847656 L 144.722656 272.847656 L 144.722656 274.015625 L 115.789062 274.015625 Z M 115.789062 272.847656 "/>
<path style=" stroke:none;fill-rule:nonzero;fill:rgb(0%,0%,0%);fill-opacity:1;" d="M 159.421875 272.847656 L 208.65625 272.847656 L 208.65625 274.015625 L 159.421875 274.015625 Z M 159.421875 272.847656 "/>
<path style=" stroke:none;fill-rule:nonzero;fill:rgb(0%,0%,0%);fill-opacity:1;" d="M 298.78125 274.25 L 292.421875 272.089844 L 289.796875 274.015625 L 211.628906 274.015625 L 211.628906 272.847656 L 289.386719 272.847656 L 292.246094 270.804688 L 297.613281 272.617188 L 297.613281 228.960938 L 298.78125 228.960938 Z M 298.78125 274.25 "/>
<path style=" stroke:none;fill-rule:nonzero;fill:rgb(0%,0%,0%);fill-opacity:1;" d="M 298.78125 223.125 L 297.613281 223.125 L 297.613281 177.136719 C 296.210938 176.84375 295.164062 175.621094 295.164062 174.160156 C 295.164062 172.46875 296.503906 171.125 298.195312 171.125 C 299.886719 171.125 301.230469 172.46875 301.230469 174.160156 L 300.0625 174.160156 C 300.0625 173.167969 299.246094 172.292969 298.195312 172.292969 C 297.144531 172.292969 296.328125 173.109375 296.328125 174.160156 C 296.328125 175.210938 297.144531 176.027344 298.195312 176.027344 L 298.78125 176.027344 Z M 298.78125 223.125 "/>
<path style=" stroke:none;fill-rule:nonzero;fill:rgb(0%,0%,0%);fill-opacity:1;" d="M 106.28125 278.625 L 98.933594 272.441406 L 99.632812 271.566406 L 106.574219 277.34375 L 109.316406 276.582031 L 110.773438 276.992188 L 112.933594 275.765625 L 115.089844 275.824219 L 116.140625 274.714844 L 108.5 265.320312 L 102.199219 266.019531 L 88.722656 273.957031 L 88.140625 272.90625 L 101.847656 264.910156 L 108.964844 264.09375 L 117.714844 274.773438 L 115.558594 277.050781 L 113.222656 276.933594 L 110.949219 278.21875 L 109.316406 277.808594 Z M 106.28125 278.625 "/>
<path style=" stroke:none;fill-rule:nonzero;fill:rgb(0%,0%,0%);fill-opacity:1;" d="M 103.410156 263.167969 L 117.121094 247.722656 L 117.996094 248.496094 L 104.28125 263.941406 Z M 103.410156 263.167969 "/>
<path style=" stroke:none;fill-rule:nonzero;fill:rgb(0%,0%,0%);fill-opacity:1;" d="M 105.585938 273.550781 L 106.011719 273.152344 L 109.519531 276.90625 L 109.089844 277.304688 Z M 105.585938 273.550781 "/>
<path style=" stroke:none;fill-rule:nonzero;fill:rgb(0%,0%,0%);fill-opacity:1;" d="M 109.054688 272.109375 L 109.496094 271.730469 L 113.296875 276.15625 L 112.855469 276.535156 Z M 109.054688 272.109375 "/>
<path style=" stroke:none;fill-rule:nonzero;fill:rgb(0%,0%,0%);fill-opacity:1;" d="M 154.113281 278.625 L 151.140625 277.808594 L 149.507812 278.21875 L 147.171875 276.933594 L 144.839844 277.050781 L 142.683594 274.773438 L 151.429688 264.09375 L 158.605469 264.910156 L 172.257812 272.90625 L 171.671875 273.957031 L 158.199219 266.019531 L 151.898438 265.320312 L 144.257812 274.714844 L 145.308594 275.824219 L 147.464844 275.765625 L 149.625 276.992188 L 151.140625 276.582031 L 153.824219 277.34375 L 160.765625 271.566406 L 161.523438 272.441406 Z M 154.113281 278.625 "/>
<path style=" stroke:none;fill-rule:nonzero;fill:rgb(0%,0%,0%);fill-opacity:1;" d="M 150.914062 276.980469 L 154.417969 273.226562 L 154.84375 273.625 L 151.339844 277.378906 Z M 150.914062 276.980469 "/>
<path style=" stroke:none;fill-rule:nonzero;fill:rgb(0%,0%,0%);fill-opacity:1;" d="M 147.164062 276.136719 L 150.960938 271.707031 L 151.40625 272.089844 L 147.605469 276.515625 Z M 147.164062 276.136719 "/>
<path style=" stroke:none;fill-rule:nonzero;fill:rgb(0%,0%,0%);fill-opacity:1;" d="M 143.601562 249.308594 L 144.527344 248.597656 L 155.074219 262.347656 L 154.148438 263.058594 Z M 143.601562 249.308594 "/>
<path style=" stroke:none;fill-rule:nonzero;fill:rgb(0%,0%,0%);fill-opacity:1;" d="M 226.15625 107.394531 C 226.039062 107.394531 225.980469 107.394531 225.863281 107.394531 C 223.53125 107.222656 221.957031 104.710938 221.898438 104.59375 L 222.421875 104.304688 C 222.421875 104.304688 223.9375 106.695312 225.921875 106.871094 C 227.03125 106.988281 228.082031 106.40625 229.128906 105.238281 L 229.597656 105.644531 C 228.488281 106.753906 227.320312 107.394531 226.15625 107.394531 Z M 226.15625 107.394531 "/>
<path style=" stroke:none;fill-rule:nonzero;fill:rgb(0%,0%,0%);fill-opacity:1;" d="M 130.433594 218.632812 C 121.449219 218.632812 118.183594 211.746094 118.125 211.628906 L 119.171875 211.160156 C 119.347656 211.511719 123.546875 220.207031 136.03125 216.589844 L 136.382812 217.699219 C 134.222656 218.398438 132.238281 218.632812 130.433594 218.632812 Z M 130.433594 218.632812 "/>
<path style=" stroke:none;fill-rule:nonzero;fill:rgb(0%,0%,0%);fill-opacity:1;" d="M 132.238281 215.246094 C 122.90625 215.246094 121.039062 207.660156 120.980469 207.542969 L 122.089844 207.25 L 121.507812 207.367188 L 122.089844 207.25 C 122.148438 207.601562 124.25 215.65625 135.449219 213.730469 L 135.625 214.898438 C 134.398438 215.128906 133.230469 215.246094 132.238281 215.246094 Z M 132.238281 215.246094 "/>
<path style=" stroke:none;fill-rule:nonzero;fill:rgb(0%,0%,0%);fill-opacity:1;" d="M 134.398438 212.445312 C 127.339844 211.980469 125.824219 207.191406 125.765625 207.019531 L 126.875 206.667969 C 126.933594 206.84375 128.273438 210.871094 134.457031 211.277344 Z M 134.398438 212.445312 "/>
<path style=" stroke:none;fill-rule:nonzero;fill:rgb(0%,0%,0%);fill-opacity:1;" d="M 37.566406 168.675781 L 32.257812 168.675781 L 32.257812 148.832031 L 33.425781 148.832031 L 33.425781 167.507812 L 37.566406 167.507812 Z M 37.566406 168.675781 "/>
<path style=" stroke:none;fill-rule:nonzero;fill:rgb(0%,0%,0%);fill-opacity:1;" d="M 52.675781 168.675781 L 40.484375 168.675781 L 40.484375 167.507812 L 51.507812 167.507812 L 51.507812 149.417969 L 49.582031 149.417969 L 49.582031 148.25 L 52.675781 148.25 Z M 52.675781 168.675781 "/>
<g clip-path="url(#clip3)" clip-rule="nonzero">
<path style=" stroke:none;fill-rule:nonzero;fill:rgb(0%,0%,0%);fill-opacity:1;" d="M 32.492188 177.429688 L 23.507812 177.429688 L 23.507812 157.351562 L 32.609375 148.25 L 46.667969 148.25 L 46.667969 149.417969 L 33.132812 149.417969 L 24.675781 157.878906 L 24.675781 176.261719 L 32.492188 176.261719 Z M 32.492188 177.429688 "/>
</g>
<path style=" stroke:none;fill-rule:nonzero;fill:rgb(0%,0%,0%);fill-opacity:1;" d="M 58.59375 278.847656 L 64.410156 273.027344 L 65.234375 273.851562 L 59.417969 279.671875 Z M 58.59375 278.847656 "/>
<path style=" stroke:none;fill-rule:nonzero;fill:rgb(100%,100%,100%);fill-opacity:1;" d="M 79.800781 136.285156 L 137.140625 136.285156 C 138.773438 136.285156 140.058594 135 140.058594 133.367188 C 140.058594 131.734375 138.773438 130.449219 137.140625 130.449219 L 79.800781 130.449219 C 78.164062 130.449219 76.882812 131.734375 76.882812 133.367188 C 76.882812 135 78.222656 136.285156 79.800781 136.285156 Z M 79.800781 136.285156 "/>
<g clip-path="url(#clip4)" clip-rule="nonzero">
<path style=" stroke:none;fill-rule:nonzero;fill:rgb(0%,0%,0%);fill-opacity:1;" d="M 23.683594 176.449219 L 32.425781 167.699219 L 33.25 168.527344 L 24.507812 177.273438 Z M 23.683594 176.449219 "/>
</g>
<path style=" stroke:none;fill-rule:nonzero;fill:rgb(0%,0%,0%);fill-opacity:1;" d="M 134.28125 210.167969 C 134.222656 210.167969 132.183594 209.585938 131.308594 207.25 L 132.414062 206.84375 C 133.058594 208.59375 134.574219 209.003906 134.574219 209.003906 Z M 134.28125 210.167969 "/>
</g>
</svg>
