<?xml version="1.0" encoding="UTF-8"?>
<svg xmlns="http://www.w3.org/2000/svg" xmlns:xlink="http://www.w3.org/1999/xlink" width="375pt" height="374.999991pt" viewBox="0 0 375 374.999991" version="1.2">
<defs>
<clipPath id="clip1">
  <path d="M 50 57 L 325 57 L 325 317.917969 L 50 317.917969 Z M 50 57 "/>
</clipPath>
<clipPath id="clip2">
  <path d="M 49.382812 57 L 325.382812 57 L 325.382812 317.917969 L 49.382812 317.917969 Z M 49.382812 57 "/>
</clipPath>
</defs>
<g id="surface1">
<g clip-path="url(#clip1)" clip-rule="nonzero">
<path style=" stroke:none;fill-rule:nonzero;fill:rgb(100%,100%,100%);fill-opacity:1;" d="M 132.402344 246.160156 C 127.453125 247.828125 123.804688 250.277344 121.515625 252.152344 C 121.515625 248.714844 121.515625 245.273438 121.515625 241.835938 C 123.492188 241.679688 125.628906 241.472656 127.871094 241.160156 C 129.691406 240.898438 131.464844 240.585938 133.128906 240.273438 L 140.476562 244.492188 C 138.234375 244.703125 135.421875 245.121094 132.402344 246.160156 Z M 273.890625 170.035156 C 273.890625 169.929688 273.941406 169.773438 273.941406 169.667969 C 274.722656 163.78125 270.246094 155.703125 269.515625 154.453125 L 270.972656 154.453125 L 273.316406 137.519531 L 277.015625 110.996094 L 281.339844 80.203125 L 276.496094 76.660156 L 231.847656 88.589844 L 224.402344 148.460938 L 223.671875 154.453125 L 257.429688 154.453125 C 258.472656 157.109375 261.597656 165.550781 258.367188 169.929688 C 246.070312 169.824219 233.828125 169.773438 221.535156 169.667969 C 220.234375 167.113281 217.679688 163.519531 213.09375 161.800781 C 206.792969 159.457031 199.34375 161.644531 194.707031 167.273438 C 192.050781 166.855469 189.390625 166.4375 186.738281 166.023438 L 186.738281 146.066406 C 186.839844 139.34375 186.421875 131.476562 185.015625 122.878906 C 184.234375 118.292969 183.296875 114.019531 182.203125 110.164062 L 180.746094 110.164062 C 183.820312 109.902344 186.683594 108.082031 188.820312 105.265625 C 189.027344 105.003906 189.238281 104.691406 189.445312 104.328125 C 189.601562 104.121094 189.707031 103.910156 189.808594 103.703125 C 189.863281 103.652344 189.863281 103.597656 189.914062 103.546875 C 189.964844 103.441406 190.070312 103.285156 190.121094 103.179688 C 190.121094 103.128906 190.171875 103.078125 190.171875 103.078125 C 190.332031 102.761719 190.488281 102.503906 190.589844 102.191406 C 190.644531 102.140625 190.644531 102.089844 190.644531 102.035156 C 190.695312 101.980469 190.695312 101.878906 190.746094 101.828125 C 190.746094 101.828125 190.746094 101.773438 190.800781 101.773438 C 191.0625 101.253906 191.269531 100.679688 191.425781 100.109375 C 195.28125 99.273438 196.320312 98.285156 196.425781 97.449219 C 196.582031 96.40625 195.28125 95.679688 193.925781 94.0625 C 192.207031 91.976562 191.371094 89.738281 190.90625 87.757812 C 190.433594 85.621094 190.28125 84.839844 189.808594 82.597656 C 189.390625 80.515625 188.609375 77.546875 187.101562 74 C 187.257812 73.898438 187.519531 73.792969 187.828125 73.585938 C 187.933594 73.535156 188.039062 73.480469 188.144531 73.429688 C 188.246094 73.375 188.351562 73.324219 188.457031 73.21875 C 188.714844 73.011719 189.027344 72.800781 189.339844 72.542969 C 189.445312 72.4375 189.550781 72.386719 189.601562 72.28125 C 189.707031 72.179688 189.863281 72.019531 189.964844 71.917969 C 190.589844 71.238281 191.164062 70.355469 191.425781 69.3125 C 191.425781 69.207031 191.476562 69.105469 191.476562 69 C 192.207031 64.570312 186.945312 60.609375 186.007812 59.984375 C 185.957031 59.933594 185.902344 59.933594 185.902344 59.882812 C 181.527344 56.910156 175.691406 57.746094 164.074219 59.359375 C 164.074219 59.359375 164.074219 59.359375 164.023438 59.359375 C 162.199219 59.621094 160.6875 59.882812 159.386719 60.140625 C 159.175781 60.191406 158.96875 60.246094 158.761719 60.296875 C 155.269531 61.078125 153.605469 61.914062 152.199219 63.113281 C 152.09375 63.164062 152.039062 63.214844 151.988281 63.269531 C 148.757812 66.027344 147.507812 69.574219 146.882812 71.554688 C 146.882812 71.554688 146.882812 71.605469 146.882812 71.65625 C 144.644531 78.585938 146.519531 84.785156 147.457031 87.289062 L 147.457031 87.339844 C 147.40625 87.339844 147.300781 87.339844 147.195312 87.339844 C 145.582031 87.289062 137.246094 87.289062 132.246094 94.324219 C 132.089844 94.480469 131.984375 94.6875 131.878906 94.898438 C 131.777344 95.054688 131.671875 95.207031 131.621094 95.363281 C 129.171875 99.324219 129.066406 103.441406 129.378906 106.308594 C 129.378906 106.359375 129.378906 106.410156 129.378906 106.464844 C 129.433594 106.671875 129.433594 106.933594 129.484375 107.140625 C 129.742188 108.601562 130.058594 109.695312 130.214844 110.007812 C 130.214844 110.058594 130.214844 110.058594 130.265625 110.113281 C 129.378906 110.632812 128.597656 111.257812 127.921875 111.882812 C 119.171875 119.804688 122.449219 135.695312 123.230469 139.1875 C 119.585938 145.28125 115.9375 151.433594 112.292969 157.527344 C 110.78125 158.933594 108.644531 161.070312 106.25 163.882812 C 105.574219 161.957031 104.269531 159.089844 101.824219 156.171875 C 99.21875 153.046875 96.351562 151.222656 94.527344 150.234375 C 89.683594 149.191406 81.609375 148.203125 72.230469 150.441406 C 67.699219 151.535156 63.898438 153.097656 60.980469 154.664062 C 62.75 173.421875 64.886719 189.46875 66.710938 202.183594 C 69.574219 221.617188 71.191406 228.808594 77.335938 234.4375 C 78.429688 235.425781 79.578125 236.3125 80.773438 237.09375 L 50.25 305.613281 L 55.980469 305.613281 C 68.636719 284.25 81.246094 262.886719 93.90625 241.523438 C 99.0625 242.199219 103.800781 241.886719 106.980469 241.523438 L 106.769531 258.875 C 103.125 257.570312 100.882812 258.40625 100.101562 258.71875 C 95.621094 260.800781 93.332031 268.410156 96.195312 277.164062 C 94.527344 276.644531 92.183594 276.226562 90.046875 277.320312 C 85.515625 279.558594 87.285156 285.8125 83.691406 297.796875 C 80.828125 307.28125 76.660156 313.480469 79.472656 316.453125 C 79.839844 316.816406 80.097656 317.128906 80.621094 317.234375 C 84.214844 317.910156 86.609375 304.261719 96.769531 296.445312 C 100.308594 293.734375 103.851562 292.378906 106.40625 291.648438 L 106.148438 314.730469 C 106.40625 314.992188 107.605469 316.136719 109.53125 316.191406 C 111.667969 316.246094 112.96875 314.941406 113.230469 314.730469 C 113.75 306.757812 114.273438 298.789062 114.847656 290.761719 L 116.148438 311.554688 L 121.515625 311.554688 L 121.515625 286.125 C 124.011719 284.199219 126.878906 282.164062 130.058594 280.183594 C 132.921875 278.414062 135.632812 276.851562 138.234375 275.546875 C 139.796875 275.183594 141.621094 274.664062 143.757812 273.882812 L 156.46875 305.613281 L 162.511719 305.613281 L 153.65625 268.878906 C 154.28125 268.460938 154.855469 268.046875 155.480469 267.628906 C 160.066406 264.292969 166.628906 259.550781 168.765625 252.152344 C 180.589844 245.484375 181.996094 238.398438 182.253906 236.261719 C 182.777344 231.9375 181.214844 227.453125 167.878906 211.511719 C 160.53125 202.757812 154.125 195.773438 149.539062 191.03125 L 216.117188 191.03125 L 219.085938 302.121094 C 219.242188 302.28125 220.648438 303.789062 222.785156 303.582031 C 224.402344 303.425781 225.335938 302.382812 225.597656 302.121094 C 226.378906 265.074219 227.160156 228.078125 227.941406 191.03125 L 247.21875 191.03125 L 249.820312 313.324219 C 250.5 314.472656 251.699219 315.148438 253 315.097656 C 254.929688 315.046875 255.867188 313.429688 255.917969 313.324219 C 257.273438 272.578125 258.574219 231.78125 259.929688 191.03125 L 285.664062 191.03125 C 291.65625 189.417969 297.644531 187.851562 303.6875 186.238281 C 304.417969 224.847656 305.148438 263.511719 305.878906 302.121094 C 306.554688 303.0625 307.597656 303.527344 308.6875 303.425781 C 310.042969 303.269531 310.773438 302.226562 310.878906 302.121094 L 314.417969 183.375 C 317.753906 182.484375 321.089844 181.601562 324.421875 180.714844 L 324.421875 170.398438 C 307.597656 170.242188 290.769531 170.136719 273.890625 170.035156 "/>
</g>
<path style=" stroke:none;fill-rule:nonzero;fill:rgb(71.759033%,14.118958%,15.689087%);fill-opacity:1;" d="M 180.851562 91.09375 C 178.660156 91.09375 176.839844 92.863281 176.839844 95.105469 C 176.839844 97.292969 178.609375 99.117188 180.851562 99.117188 C 183.089844 99.117188 184.859375 97.34375 184.859375 95.105469 C 184.808594 92.863281 183.039062 91.09375 180.851562 91.09375 Z M 231.121094 94.582031 L 224.453125 148.460938 L 267.273438 147.210938 L 275.503906 84.109375 Z M 184.964844 122.929688 C 184.183594 118.34375 183.246094 114.074219 182.152344 110.214844 L 179.652344 110.214844 C 179.652344 110.214844 179.652344 110.214844 179.601562 110.214844 C 179.496094 110.269531 179.390625 110.320312 179.285156 110.425781 C 179.078125 110.578125 178.820312 110.734375 178.558594 110.945312 C 178.296875 111.101562 178.039062 111.308594 177.777344 111.570312 C 177.671875 111.675781 177.515625 111.777344 177.410156 111.882812 C 177.359375 111.933594 177.359375 111.933594 177.308594 111.933594 C 177.203125 112.039062 177.097656 112.144531 176.996094 112.25 C 176.890625 112.351562 176.785156 112.457031 176.683594 112.558594 C 176.421875 112.820312 176.109375 113.082031 175.847656 113.394531 C 175.742188 113.5 175.640625 113.65625 175.484375 113.757812 C 175.378906 113.863281 175.277344 114.019531 175.171875 114.125 C 174.960938 114.382812 174.753906 114.644531 174.597656 114.855469 C 174.335938 115.21875 174.078125 115.582031 173.816406 115.945312 C 173.609375 116.3125 173.398438 116.675781 173.191406 116.988281 C 173.089844 117.199219 172.933594 117.40625 172.878906 117.613281 C 172.878906 117.613281 172.878906 117.667969 172.828125 117.667969 C 172.773438 117.769531 172.722656 117.824219 172.722656 117.925781 C 175.171875 124.179688 175.277344 129.335938 172.878906 131.160156 C 171.628906 132.101562 170.117188 131.941406 169.492188 131.890625 C 161.105469 131.109375 153.34375 112.820312 152.144531 110.007812 C 147.925781 104.796875 141.570312 102.660156 136.464844 104.535156 C 132.871094 105.839844 130.941406 108.703125 130.160156 110.007812 C 129.277344 110.527344 128.496094 111.152344 127.816406 111.777344 C 119.066406 119.699219 122.347656 135.589844 123.128906 139.082031 C 119.480469 145.179688 115.835938 151.328125 112.1875 157.425781 C 113.960938 160.03125 117.292969 164.144531 122.816406 167.429688 C 126.464844 169.617188 129.851562 170.710938 132.402344 171.335938 C 130.785156 165.292969 129.171875 159.195312 127.503906 153.152344 C 130.421875 152.578125 133.546875 151.796875 136.933594 150.808594 C 140.527344 149.710938 143.757812 148.511719 146.625 147.261719 C 146.46875 150.703125 146.308594 154.140625 146.207031 157.582031 C 153.96875 159.507812 161.679688 161.488281 169.390625 163.417969 C 171.265625 162.425781 175.535156 159.925781 178.453125 154.765625 C 180.382812 151.328125 180.953125 148.097656 181.164062 146.117188 L 186.683594 146.117188 C 186.789062 139.394531 186.421875 131.578125 184.964844 122.929688 "/>
<path style=" stroke:none;fill-rule:nonzero;fill:rgb(6.269836%,5.879211%,5.099487%);fill-opacity:1;" d="M 216.066406 190.980469 L 219.035156 302.070312 C 219.191406 302.226562 220.597656 303.738281 222.734375 303.527344 C 224.347656 303.371094 225.285156 302.332031 225.546875 302.070312 C 226.328125 265.023438 227.109375 228.027344 227.890625 190.980469 Z M 303.6875 186.238281 C 304.417969 224.847656 305.148438 263.511719 305.878906 302.121094 C 306.554688 303.0625 307.597656 303.527344 308.6875 303.425781 C 310.042969 303.269531 310.773438 302.226562 310.878906 302.121094 L 314.417969 183.375 C 310.878906 184.308594 307.28125 185.25 303.6875 186.238281 Z M 247.113281 190.980469 L 249.71875 313.273438 C 250.394531 314.421875 251.59375 315.097656 252.898438 315.046875 C 254.824219 314.992188 255.761719 313.378906 255.8125 313.273438 C 257.167969 272.527344 258.472656 231.726562 259.824219 190.980469 Z M 107.65625 190.980469 L 107.1875 231.78125 L 107.082031 241.523438 L 106.875 258.875 L 106.457031 291.648438 L 106.199219 314.730469 C 106.457031 314.992188 107.65625 316.136719 109.582031 316.191406 C 111.71875 316.246094 113.023438 314.941406 113.28125 314.730469 C 113.804688 306.757812 114.324219 298.789062 114.898438 290.761719 C 115.992188 274.453125 117.085938 258.195312 118.179688 241.886719 C 118.335938 239.753906 118.441406 237.5625 118.597656 235.425781 C 119.585938 220.578125 120.578125 205.777344 121.566406 190.929688 L 107.65625 190.929688 L 107.65625 190.980469 "/>
<g clip-path="url(#clip2)" clip-rule="nonzero">
<path style=" stroke:none;fill-rule:nonzero;fill:rgb(0%,0%,0%);fill-opacity:1;" d="M 263.523438 143.042969 L 229.351562 144.449219 L 234.195312 104.691406 L 268.890625 97.449219 Z M 269.929688 96.25 C 269.773438 96.148438 269.617188 96.097656 269.410156 96.097656 L 233.519531 103.597656 C 233.257812 103.652344 233.101562 103.859375 233.046875 104.121094 L 228.097656 145.023438 C 228.097656 145.179688 228.152344 145.386719 228.253906 145.492188 C 228.359375 145.597656 228.515625 145.699219 228.671875 145.699219 L 264.042969 144.242188 C 264.359375 144.242188 264.566406 144.035156 264.617188 143.71875 L 270.140625 96.769531 C 270.140625 96.5625 270.089844 96.355469 269.929688 96.25 Z M 234.351562 98.023438 L 269.097656 90.15625 C 269.410156 90.101562 269.722656 90.15625 269.929688 90.414062 C 270.140625 90.625 270.246094 90.9375 270.140625 91.25 L 270.089844 91.5625 C 269.984375 91.875 269.722656 92.136719 269.410156 92.238281 L 234.714844 99.792969 C 234.453125 99.847656 234.144531 99.792969 233.933594 99.585938 C 233.726562 99.375 233.621094 99.117188 233.621094 98.804688 C 233.726562 98.386719 233.984375 98.074219 234.351562 98.023438 Z M 234.558594 100.941406 C 234.714844 100.941406 234.871094 100.941406 235.027344 100.890625 L 269.722656 93.332031 C 270.503906 93.175781 271.128906 92.550781 271.285156 91.769531 L 271.335938 91.457031 C 271.496094 90.777344 271.285156 90.050781 270.816406 89.53125 C 270.296875 89.007812 269.566406 88.800781 268.890625 88.957031 L 234.089844 96.878906 C 233.203125 97.085938 232.582031 97.8125 232.476562 98.699219 C 232.421875 99.375 232.632812 100.003906 233.152344 100.472656 C 233.570312 100.785156 234.039062 100.941406 234.558594 100.941406 Z M 180.589844 146.066406 C 180.851562 143.199219 180.953125 140.28125 180.796875 137.363281 C 180.640625 133.195312 180.015625 129.027344 179.078125 124.960938 C 179.027344 124.648438 179.183594 124.335938 179.496094 124.234375 C 179.808594 124.179688 180.121094 124.335938 180.226562 124.648438 C 181.214844 128.765625 181.839844 133.039062 181.996094 137.308594 C 182.097656 140.230469 182.046875 143.199219 181.734375 146.167969 C 181.683594 146.480469 181.472656 146.691406 181.164062 146.691406 L 181.109375 146.691406 C 180.796875 146.691406 180.589844 146.378906 180.589844 146.066406 Z M 187.519531 89.894531 C 186.683594 89.894531 186.007812 89.214844 186.007812 88.382812 C 186.007812 87.550781 186.683594 86.871094 187.519531 86.871094 C 188.351562 86.871094 189.027344 87.550781 189.027344 88.382812 C 188.976562 89.214844 188.300781 89.894531 187.519531 89.894531 Z M 107.605469 259.238281 C 107.5 259.550781 107.136719 259.65625 106.820312 259.550781 C 104.582031 258.613281 102.445312 258.457031 100.882812 259.136719 C 96.925781 260.800781 94.320312 267.785156 96.875 276.644531 C 96.875 276.644531 96.875 276.644531 96.875 276.695312 C 98.226562 276.746094 99.894531 276.695312 102.082031 276.589844 C 103.4375 276.488281 104.792969 276.382812 106.148438 276.226562 C 106.457031 276.171875 106.769531 276.433594 106.769531 276.746094 C 106.820312 277.058594 106.5625 277.371094 106.25 277.371094 C 104.894531 277.527344 103.488281 277.632812 102.132812 277.738281 C 98.019531 277.996094 95.519531 277.789062 93.851562 277.6875 C 92.183594 277.578125 91.351562 277.527344 90.414062 277.894531 C 88.277344 278.777344 87.808594 281.699219 86.976562 286.542969 C 86.558594 289.042969 86.039062 292.167969 85.097656 295.664062 C 83.953125 299.984375 82.546875 303.632812 81.453125 306.550781 C 79.628906 311.292969 78.378906 314.421875 79.992188 316.085938 C 80.308594 316.398438 80.566406 316.710938 80.984375 316.765625 C 82.390625 316.972656 83.746094 314.316406 85.515625 310.929688 C 87.652344 306.867188 90.570312 301.238281 95.414062 297.070312 C 98.488281 294.410156 102.132812 292.429688 106.300781 291.179688 C 106.613281 291.078125 106.929688 291.285156 107.03125 291.597656 C 107.136719 291.910156 106.929688 292.222656 106.613281 292.328125 C 102.605469 293.523438 99.113281 295.402344 96.195312 297.953125 C 91.507812 302.019531 88.746094 307.28125 86.558594 311.5 C 84.578125 315.148438 83.171875 317.910156 81.140625 317.910156 C 81.035156 317.910156 80.929688 317.910156 80.773438 317.910156 C 79.941406 317.808594 79.421875 317.234375 79.109375 316.871094 C 76.972656 314.679688 78.328125 311.242188 80.308594 306.082031 C 81.453125 303.164062 82.808594 299.570312 83.953125 295.296875 C 84.839844 291.859375 85.359375 288.886719 85.777344 286.285156 C 86.609375 281.226562 87.183594 277.894531 89.890625 276.746094 C 91.089844 276.226562 92.132812 276.332031 93.851562 276.433594 C 94.371094 276.488281 94.945312 276.488281 95.570312 276.539062 C 93.539062 269.140625 94.789062 260.28125 100.363281 257.9375 C 101.664062 257.414062 103.957031 256.996094 107.1875 258.355469 C 107.554688 258.5625 107.710938 258.925781 107.605469 259.238281 Z M 286.289062 190.25 L 286.183594 179.414062 L 323.902344 171.128906 L 323.902344 180.246094 Z M 86.609375 215 C 88.175781 218.753906 92.234375 225.421875 102.8125 230.53125 C 95.519531 231.464844 89.683594 230.371094 85.464844 227.296875 C 76.191406 220.578125 75.671875 205.414062 75.097656 190.824219 C 74.523438 175.347656 74.003906 160.707031 63.84375 155.128906 C 63.375 154.871094 62.855469 154.609375 62.335938 154.402344 C 65.511719 152.839844 68.847656 151.640625 72.230469 150.859375 C 79.421875 149.136719 86.820312 149.035156 94.214844 150.597656 C 96.925781 152.058594 99.269531 154.039062 101.25 156.382812 C 103.070312 158.515625 104.476562 160.96875 105.417969 163.625 C 103.488281 165.863281 99.636719 170.347656 95.832031 176.078125 L 87.339844 177.328125 C 87.285156 177.328125 87.285156 177.328125 87.234375 177.382812 L 87.183594 177.382812 C 87.132812 177.382812 87.132812 177.433594 87.078125 177.433594 L 87.027344 177.484375 C 86.976562 177.535156 86.976562 177.535156 86.976562 177.589844 C 86.976562 177.640625 86.921875 177.640625 86.921875 177.691406 L 86.921875 177.746094 C 86.921875 177.796875 86.871094 177.847656 86.871094 177.902344 C 86.820312 182.277344 86.765625 186.65625 86.714844 190.980469 C 86.714844 191.136719 86.765625 191.292969 86.871094 191.398438 C 86.976562 191.5 87.132812 191.554688 87.285156 191.554688 L 87.601562 191.554688 C 84.265625 200.515625 83.902344 208.382812 86.609375 215 Z M 87.914062 190.40625 C 87.964844 186.445312 88.015625 182.433594 88.066406 178.472656 L 285.039062 179.515625 L 285.144531 190.40625 Z M 133.546875 174.203125 L 203.824219 174.929688 L 224.453125 174.929688 C 224.660156 174.929688 224.921875 174.777344 224.972656 174.566406 C 225.078125 174.359375 225.027344 174.097656 224.871094 173.941406 L 223.203125 172.117188 C 223.046875 171.648438 222.839844 171.023438 222.472656 170.292969 L 257.011719 170.5 C 255.34375 171.855469 252.792969 171.910156 247.6875 171.960938 C 246.90625 171.960938 246.070312 171.960938 245.1875 172.015625 C 238.726562 172.117188 232.109375 172.480469 225.390625 173.054688 C 225.128906 173.054688 224.871094 173.316406 224.871094 173.578125 C 224.816406 173.835938 225.027344 174.097656 225.285156 174.203125 L 233.828125 176.703125 C 233.882812 176.703125 233.933594 176.703125 233.984375 176.703125 C 238.257812 176.808594 242.527344 176.859375 246.75 176.859375 C 250.96875 176.859375 255.1875 176.808594 259.355469 176.703125 C 267.535156 176.492188 270.816406 176.183594 272.902344 173.679688 C 273.578125 172.847656 274.097656 171.804688 274.359375 170.609375 L 319.214844 170.917969 L 285.507812 178.316406 L 95.257812 177.328125 L 132.039062 171.960938 C 132.347656 172.585938 132.660156 173.265625 133.027344 173.886719 C 133.128906 174.097656 133.339844 174.203125 133.546875 174.203125 Z M 207.15625 172.691406 L 211.324219 169.667969 L 222.367188 173.003906 L 223.097656 173.785156 L 205.648438 173.785156 Z M 258.3125 155.027344 L 269.203125 155.027344 C 270.347656 157.058594 274.097656 164.25 273.421875 169.566406 C 273.421875 169.566406 273.421875 169.566406 273.421875 169.617188 C 273.421875 169.667969 273.421875 169.71875 273.421875 169.773438 C 273.371094 169.824219 273.371094 169.929688 273.371094 170.035156 C 273.160156 171.179688 272.742188 172.171875 272.066406 172.953125 C 270.296875 175.085938 267.171875 175.347656 259.410156 175.558594 C 251.175781 175.765625 242.6875 175.765625 234.195312 175.558594 L 228.777344 173.996094 C 234.351562 173.578125 239.925781 173.316406 245.289062 173.210938 C 246.175781 173.210938 247.011719 173.160156 247.792969 173.160156 C 253.679688 173.105469 256.386719 173.054688 258.417969 170.972656 C 258.574219 170.816406 258.679688 170.710938 258.785156 170.554688 C 259.042969 170.5 259.253906 170.292969 259.253906 169.980469 C 259.253906 169.929688 259.253906 169.929688 259.253906 169.875 C 261.648438 165.8125 259.875 159.195312 258.3125 155.027344 Z M 232.421875 89.0625 L 275.820312 77.441406 L 265.816406 153.828125 L 224.347656 153.828125 Z M 276.496094 110.894531 L 272.796875 137.414062 L 270.503906 153.878906 L 267.066406 153.878906 L 277.015625 77.753906 L 280.769531 80.515625 Z M 289.050781 119.804688 C 290.824219 123.136719 291.132812 127.203125 289.882812 131.890625 C 284.832031 131.789062 279.308594 133.402344 274.097656 136.371094 L 277.539062 111.675781 C 280.925781 112.558594 286.289062 114.695312 289.050781 119.804688 Z M 270.503906 155.027344 L 270.972656 155.027344 C 271.285156 155.027344 271.496094 154.820312 271.546875 154.503906 L 273.890625 137.882812 C 278.996094 134.757812 284.519531 133.089844 289.570312 133.089844 C 288.945312 135.070312 288.21875 136.789062 287.695312 138.09375 C 286.238281 141.480469 284.777344 143.300781 283.320312 145.074219 C 281.914062 146.792969 280.609375 148.410156 279.414062 151.273438 C 277.226562 156.539062 276.859375 162.6875 278.472656 169.511719 L 274.621094 169.511719 C 275.089844 164.25 271.910156 157.683594 270.503906 155.027344 Z M 300.40625 137.414062 C 302.285156 139.914062 303.429688 144.5 301.8125 147.992188 C 300.613281 150.652344 298.375 151.691406 295.824219 152.941406 C 293.375 154.140625 290.5625 155.496094 288.582031 158.515625 C 286.707031 161.382812 286.082031 165.082031 286.65625 169.511719 L 279.570312 169.460938 C 278.007812 162.792969 278.265625 156.800781 280.402344 151.691406 C 281.550781 148.984375 282.796875 147.421875 284.152344 145.804688 C 285.613281 143.980469 287.175781 142.105469 288.6875 138.5625 C 289.257812 137.207031 290.09375 135.328125 290.714844 133.140625 C 295.039062 133.402344 298.53125 134.914062 300.40625 137.414062 Z M 156.78125 305.042969 L 144.488281 274.191406 C 147.5625 272.996094 150.476562 271.535156 153.238281 269.816406 L 161.730469 305.042969 Z M 129.691406 279.71875 C 127.089844 281.332031 124.535156 283.15625 122.035156 284.980469 L 122.035156 261.21875 L 126.929688 256.007812 C 127.089844 259.136719 127.921875 263.355469 130.371094 267.679688 C 132.039062 270.652344 134.382812 273.359375 137.089844 275.496094 C 134.589844 276.796875 132.140625 278.207031 129.691406 279.71875 Z M 125.210938 242.097656 C 127.816406 241.835938 130.421875 241.417969 132.976562 240.84375 C 133.859375 241.261719 134.796875 241.734375 135.683594 242.253906 C 136.621094 242.773438 137.507812 243.296875 138.445312 243.867188 C 137.453125 243.921875 136.464844 244.023438 135.527344 244.230469 C 133.601562 244.648438 131.828125 245.378906 130.109375 246.371094 C 128.285156 247.046875 126.515625 247.933594 124.847656 248.921875 C 123.910156 249.496094 122.972656 250.171875 122.085938 250.851562 L 122.085938 242.355469 C 123.128906 242.304688 124.171875 242.253906 125.210938 242.097656 Z M 136.671875 248.035156 C 134.691406 248.765625 132.765625 249.808594 130.996094 251.003906 L 130.996094 247.253906 C 132.503906 246.371094 134.121094 245.746094 135.789062 245.378906 C 137.246094 245.066406 138.757812 244.960938 140.269531 245.066406 C 140.996094 245.535156 141.675781 246.054688 142.351562 246.578125 C 140.371094 246.890625 138.496094 247.359375 136.671875 248.035156 Z M 127.089844 254.132812 C 127.089844 254.132812 127.089844 254.183594 127.089844 254.132812 C 127.089844 254.183594 127.089844 254.183594 127.089844 254.132812 L 122.035156 259.5 L 122.035156 252.414062 C 123.128906 251.527344 124.273438 250.695312 125.421875 249.964844 C 126.773438 249.132812 128.234375 248.402344 129.742188 247.777344 L 129.742188 251.839844 C 128.859375 252.570312 127.972656 253.351562 127.089844 254.132812 Z M 55.664062 305.042969 L 51.183594 305.042969 L 80.929688 237.773438 C 84.371094 239.855469 88.433594 241.261719 93.015625 241.992188 Z M 325.046875 170.292969 C 325.046875 170.292969 325.046875 170.242188 325.046875 170.292969 C 325.046875 170.242188 325.046875 170.242188 325.046875 170.191406 C 325.046875 170.136719 324.996094 170.085938 324.996094 170.035156 L 324.945312 169.980469 C 324.890625 169.929688 324.890625 169.929688 324.839844 169.875 C 324.789062 169.875 324.789062 169.824219 324.734375 169.824219 C 324.683594 169.824219 324.683594 169.773438 324.632812 169.773438 C 324.578125 169.773438 324.578125 169.773438 324.527344 169.773438 L 324.472656 169.773438 L 287.902344 169.511719 C 287.332031 165.34375 287.902344 161.851562 289.625 159.195312 C 291.394531 156.433594 293.894531 155.183594 296.34375 154.039062 C 299 152.734375 301.5 151.535156 302.90625 148.511719 C 304.730469 144.554688 303.480469 139.550781 301.34375 136.738281 C 299.261719 133.976562 295.613281 132.308594 291.082031 131.996094 C 292.28125 127.097656 291.96875 122.824219 290.09375 119.28125 C 287.121094 113.707031 281.289062 111.46875 277.746094 110.578125 L 281.964844 80.308594 C 282.015625 80.097656 281.914062 79.890625 281.707031 79.734375 L 276.859375 76.191406 C 276.703125 76.085938 276.546875 76.085938 276.390625 76.085938 L 231.746094 88.019531 C 231.539062 88.070312 231.328125 88.28125 231.328125 88.539062 L 223.148438 154.402344 C 223.148438 154.558594 223.203125 154.714844 223.308594 154.871094 C 223.410156 154.976562 223.566406 155.078125 223.722656 155.078125 L 257.066406 155.078125 C 258.367188 158.363281 260.609375 165.5 258.054688 169.355469 L 221.902344 169.09375 C 220.441406 166.386719 217.835938 162.945312 213.304688 161.28125 C 206.792969 158.882812 199.289062 161.019531 194.445312 166.699219 L 187.257812 165.605469 L 187.257812 146.167969 C 187.257812 145.855469 186.996094 145.597656 186.683594 145.597656 C 186.371094 145.597656 186.113281 145.855469 186.113281 146.167969 L 186.113281 165.449219 L 169.546875 162.894531 C 169.230469 162.84375 168.921875 163.050781 168.867188 163.363281 C 168.816406 163.675781 169.023438 163.988281 169.335938 164.042969 L 194.601562 167.949219 C 194.8125 168.003906 195.019531 167.894531 195.121094 167.742188 C 199.605469 162.269531 206.742188 160.132812 212.886719 162.425781 C 217.210938 164.042969 219.714844 167.429688 221.015625 169.980469 C 221.277344 170.5 221.535156 171.023438 221.742188 171.542969 L 211.378906 168.417969 C 211.222656 168.367188 211.011719 168.417969 210.855469 168.523438 L 206.167969 171.960938 L 203.667969 173.785156 L 133.910156 173.054688 C 133.546875 172.429688 133.234375 171.753906 132.921875 171.128906 C 131.828125 168.835938 130.890625 166.488281 130.160156 164.042969 C 129.066406 160.496094 128.390625 156.851562 128.128906 153.152344 L 128.128906 153.046875 L 123.753906 138.976562 C 123.648438 138.667969 123.335938 138.507812 123.023438 138.613281 C 122.710938 138.71875 122.554688 139.03125 122.660156 139.34375 L 127.035156 153.359375 C 127.347656 157.109375 128.027344 160.863281 129.121094 164.457031 C 129.796875 166.699219 130.632812 168.886719 131.621094 170.972656 L 97.550781 175.921875 C 101.25 170.554688 104.84375 166.386719 106.613281 164.300781 L 106.667969 164.199219 C 108.542969 162.011719 110.574219 159.925781 112.660156 157.890625 C 112.917969 157.683594 112.917969 157.320312 112.660156 157.058594 C 112.449219 156.800781 112.085938 156.800781 111.824219 157.058594 C 109.949219 158.832031 108.125 160.757812 106.40625 162.6875 C 105.417969 160.132812 104.011719 157.789062 102.238281 155.703125 C 100.15625 153.203125 97.65625 151.171875 94.789062 149.609375 C 94.738281 149.554688 94.6875 149.554688 94.632812 149.554688 C 87.027344 147.941406 79.421875 147.992188 72.074219 149.765625 C 68.167969 150.703125 64.3125 152.109375 60.71875 153.984375 C 60.667969 153.984375 60.667969 154.039062 60.613281 154.039062 C 60.5625 154.039062 60.5625 154.089844 60.5625 154.089844 C 60.5625 154.089844 60.511719 154.140625 60.511719 154.195312 C 60.511719 154.246094 60.457031 154.246094 60.457031 154.296875 C 60.457031 154.296875 60.457031 154.347656 60.40625 154.347656 L 60.40625 154.402344 C 60.40625 154.453125 60.40625 154.453125 60.40625 154.503906 C 60.40625 154.558594 60.40625 154.558594 60.40625 154.609375 C 61.917969 170.5 63.84375 186.5 66.136719 202.132812 C 68.898438 221.152344 70.566406 228.859375 76.921875 234.75 C 77.910156 235.632812 78.953125 236.46875 80.046875 237.199219 L 49.832031 305.457031 C 49.726562 305.667969 49.777344 305.875 49.882812 306.03125 C 49.988281 306.1875 50.195312 306.292969 50.351562 306.292969 L 56.082031 306.292969 C 56.289062 306.292969 56.5 306.1875 56.605469 305.976562 L 94.371094 242.199219 C 96.300781 242.460938 98.28125 242.566406 100.363281 242.566406 C 102.550781 242.566406 104.84375 242.410156 107.136719 242.148438 C 107.449219 242.148438 107.710938 241.886719 107.710938 241.574219 C 107.710938 241.261719 107.394531 241 107.082031 241 C 96.558594 242.199219 87.601562 240.636719 81.089844 236.46875 C 79.890625 235.6875 78.796875 234.851562 77.703125 233.863281 C 71.917969 228.496094 70.203125 221.933594 67.28125 201.921875 C 65.042969 186.605469 63.167969 170.972656 61.65625 155.390625 C 62.28125 155.652344 62.855469 155.910156 63.429688 156.226562 C 72.960938 161.488281 73.480469 175.816406 74.054688 190.929688 C 74.628906 205.832031 75.199219 221.253906 84.890625 228.339844 C 88.328125 230.839844 92.808594 232.09375 98.175781 232.09375 C 100.257812 232.09375 102.550781 231.882812 104.949219 231.519531 C 105.625 231.832031 106.355469 232.09375 107.082031 232.40625 C 107.136719 232.457031 107.238281 232.457031 107.292969 232.457031 C 107.554688 232.457031 107.761719 232.300781 107.863281 232.09375 C 107.96875 231.78125 107.8125 231.464844 107.554688 231.3125 C 94.320312 226.203125 89.527344 218.648438 87.914062 214.636719 C 85.253906 208.175781 85.671875 200.460938 89.058594 191.65625 L 149.175781 191.65625 C 155.375 198.117188 161.472656 204.945312 167.359375 211.925781 C 180.121094 227.195312 182.097656 231.9375 181.578125 236.261719 C 181.214844 239.335938 179.128906 245.273438 169.597656 251.058594 C 171.527344 241.679688 165.480469 232.71875 160.117188 224.746094 C 152.09375 212.8125 141.203125 202.808594 127.816406 195.042969 C 127.554688 194.886719 127.191406 194.992188 127.035156 195.253906 C 126.878906 195.511719 126.984375 195.878906 127.246094 196.035156 C 140.527344 203.695312 151.257812 213.59375 159.175781 225.371094 C 164.648438 233.5 170.847656 242.722656 168.191406 252.046875 C 166.105469 259.238281 159.804688 263.824219 155.167969 267.210938 C 154.59375 267.628906 153.96875 268.097656 153.34375 268.460938 C 150.320312 270.441406 147.039062 272.109375 143.550781 273.410156 C 141.832031 274.039062 140.113281 274.558594 138.390625 275.027344 C 135.582031 272.941406 133.183594 270.234375 131.464844 267.210938 C 128.808594 262.523438 128.179688 257.988281 128.128906 254.914062 C 128.960938 254.132812 129.851562 253.402344 130.734375 252.726562 C 132.714844 251.265625 134.847656 250.121094 137.089844 249.289062 C 139.175781 248.507812 141.414062 247.984375 143.65625 247.726562 C 144.070312 248.035156 144.488281 248.402344 144.902344 248.714844 C 145.007812 248.816406 145.164062 248.871094 145.269531 248.871094 C 145.425781 248.871094 145.582031 248.816406 145.738281 248.660156 C 145.945312 248.402344 145.894531 248.035156 145.6875 247.828125 C 145.21875 247.464844 144.746094 247.097656 144.28125 246.683594 C 144.226562 246.628906 144.226562 246.628906 144.175781 246.578125 C 143.082031 245.691406 141.933594 244.859375 140.789062 244.078125 C 140.789062 244.078125 140.738281 244.078125 140.738281 244.023438 C 139.277344 243.035156 137.820312 242.148438 136.308594 241.261719 C 135.371094 240.742188 134.433594 240.273438 133.445312 239.804688 C 128.808594 237.5625 123.804688 235.894531 118.699219 234.957031 C 118.390625 234.90625 118.074219 235.113281 118.023438 235.425781 C 117.972656 235.742188 118.179688 236.050781 118.492188 236.105469 C 122.921875 236.9375 127.191406 238.238281 131.308594 240.0625 C 129.277344 240.429688 127.246094 240.742188 125.210938 240.949219 C 122.867188 241.210938 120.523438 241.316406 118.179688 241.367188 C 117.867188 241.367188 117.609375 241.625 117.609375 241.941406 C 117.609375 242.253906 117.867188 242.515625 118.179688 242.515625 C 119.117188 242.515625 120.054688 242.460938 120.992188 242.410156 L 120.992188 260.90625 C 120.992188 260.90625 120.992188 260.90625 120.992188 260.957031 L 120.992188 310.929688 L 116.773438 310.929688 L 115.523438 290.710938 C 115.523438 290.398438 115.210938 290.136719 114.898438 290.136719 C 114.585938 290.136719 114.324219 290.453125 114.324219 290.761719 L 115.628906 311.554688 C 115.628906 311.867188 115.886719 312.125 116.199219 312.125 L 121.566406 312.125 C 121.878906 312.125 122.140625 311.867188 122.140625 311.554688 L 122.140625 286.4375 C 124.792969 284.40625 127.554688 282.480469 130.421875 280.65625 C 133.027344 278.988281 135.789062 277.476562 138.496094 276.070312 C 140.164062 275.652344 141.777344 275.183594 143.445312 274.558594 L 155.949219 305.769531 C 156.050781 305.976562 156.261719 306.132812 156.46875 306.132812 L 162.511719 306.132812 C 162.667969 306.132812 162.878906 306.03125 162.980469 305.925781 C 163.085938 305.769531 163.136719 305.613281 163.085938 305.40625 L 154.335938 269.089844 C 154.855469 268.722656 155.375 268.410156 155.84375 268.046875 C 160.585938 264.605469 166.992188 259.917969 169.230469 252.519531 C 180.066406 246.371094 182.414062 239.699219 182.777344 236.261719 C 183.351562 231.519531 181.371094 226.777344 168.292969 211.039062 C 162.667969 204.320312 156.832031 197.753906 150.84375 191.554688 L 285.664062 191.554688 C 285.714844 191.554688 285.769531 191.554688 285.820312 191.554688 L 324.578125 181.238281 C 324.839844 181.183594 324.996094 180.921875 324.996094 180.664062 L 324.996094 170.347656 C 325.046875 170.347656 325.046875 170.347656 325.046875 170.292969 Z M 184.808594 102.347656 L 189.914062 102.347656 C 189.863281 102.503906 189.757812 102.660156 189.652344 102.816406 L 190.171875 103.078125 L 189.601562 102.871094 C 189.5 103.023438 189.445312 103.179688 189.339844 103.390625 C 189.238281 103.597656 189.132812 103.753906 188.976562 103.960938 C 188.976562 103.960938 188.976562 104.015625 188.925781 104.015625 C 188.769531 104.222656 188.664062 104.378906 188.558594 104.585938 L 188.507812 104.640625 C 187.828125 104.640625 187.257812 104.535156 186.738281 104.277344 C 185.640625 103.804688 185.070312 102.972656 184.808594 102.347656 Z M 129.640625 110.164062 C 129.640625 110.214844 129.640625 110.214844 129.640625 110.164062 C 129.691406 110.269531 129.691406 110.320312 129.742188 110.371094 C 129.796875 110.425781 129.851562 110.476562 129.902344 110.476562 C 129.902344 110.476562 129.953125 110.476562 129.953125 110.527344 C 130.003906 110.527344 130.058594 110.578125 130.109375 110.578125 L 130.214844 110.578125 C 130.265625 110.578125 130.265625 110.578125 130.316406 110.578125 L 130.371094 110.578125 C 130.421875 110.578125 130.421875 110.527344 130.472656 110.527344 C 130.523438 110.527344 130.523438 110.527344 130.578125 110.476562 C 131.414062 109.851562 135.683594 106.777344 140.527344 108.027344 C 145.945312 109.433594 149.644531 115.375 149.070312 121.886719 L 146.101562 147.160156 C 146.050781 147.472656 146.308594 147.785156 146.625 147.835938 L 146.675781 147.835938 C 146.988281 147.835938 147.25 147.628906 147.25 147.316406 L 150.21875 122.042969 C 150.792969 114.957031 146.78125 108.445312 140.789062 106.933594 C 136.253906 105.734375 132.195312 107.972656 130.523438 109.121094 C 128.808594 103.078125 130.316406 96.617188 134.539062 92.449219 C 139.332031 87.707031 145.632812 87.757812 147.40625 87.914062 C 147.613281 87.914062 147.769531 87.863281 147.925781 87.707031 C 148.03125 87.550781 148.082031 87.339844 148.03125 87.183594 C 147.5625 85.726562 143.914062 72.910156 151.050781 64.988281 C 154.90625 60.714844 161.367188 60.140625 174.234375 58.890625 C 180.121094 58.320312 182.988281 58.683594 185.640625 60.351562 C 188.039062 61.859375 191.789062 65.402344 190.851562 69.15625 C 190.332031 71.1875 188.664062 72.492188 187.414062 73.21875 C 187.203125 72.75 187.046875 72.28125 186.839844 71.8125 C 186.738281 71.554688 186.476562 71.449219 186.214844 71.449219 C 185.015625 71.605469 183.871094 71.710938 182.671875 71.867188 C 182.414062 71.917969 182.203125 72.074219 182.152344 72.335938 C 181.578125 75.042969 180.535156 77.648438 179.078125 79.992188 C 177.722656 82.183594 176.058594 84.164062 174.078125 85.828125 C 172.097656 84.265625 170.691406 84.265625 170.011719 84.476562 C 168.867188 84.785156 167.824219 85.777344 167.148438 87.289062 C 166.210938 89.425781 165.847656 92.8125 167.253906 95.523438 C 167.460938 95.886719 167.667969 96.25 167.984375 96.617188 C 167.097656 100.109375 165.636719 102.398438 163.605469 103.335938 C 162.5625 103.859375 161.628906 103.910156 160.585938 104.015625 C 159.4375 104.121094 158.136719 104.171875 156.574219 104.953125 C 154.542969 105.890625 152.875 107.558594 151.625 109.902344 C 151.46875 110.164062 151.574219 110.527344 151.832031 110.683594 C 151.9375 110.734375 152.039062 110.734375 152.09375 110.734375 C 152.300781 110.734375 152.511719 110.632812 152.613281 110.425781 C 153.761719 108.289062 155.269531 106.828125 157.042969 105.941406 C 158.394531 105.316406 159.542969 105.214844 160.636719 105.160156 C 161.730469 105.109375 162.878906 105.003906 164.125 104.378906 C 166.316406 103.335938 167.878906 101.046875 168.921875 97.605469 C 169.441406 98.074219 170.011719 98.492188 170.636719 98.855469 C 170.898438 99.011719 171.265625 98.910156 171.417969 98.648438 C 171.578125 98.386719 171.472656 98.023438 171.210938 97.867188 C 170.328125 97.398438 169.648438 96.769531 169.074219 96.097656 C 168.765625 95.730469 168.503906 95.363281 168.292969 94.949219 C 167.042969 92.601562 167.410156 89.582031 168.191406 87.757812 C 168.710938 86.609375 169.492188 85.777344 170.273438 85.621094 C 170.691406 85.519531 171.835938 85.464844 173.660156 87.082031 C 173.871094 87.289062 174.179688 87.289062 174.441406 87.082031 C 176.683594 85.257812 178.558594 83.121094 180.066406 80.671875 C 181.527344 78.328125 182.570312 75.722656 183.195312 73.0625 C 184.078125 72.960938 184.964844 72.855469 185.851562 72.75 C 187.046875 75.722656 188.089844 78.742188 188.925781 81.816406 C 188.457031 81.714844 187.984375 81.660156 187.519531 81.660156 C 184.757812 81.714844 182.988281 83.695312 182.515625 84.320312 C 182.308594 84.578125 182.359375 84.945312 182.621094 85.152344 C 182.726562 85.257812 182.878906 85.257812 182.988281 85.257812 C 183.140625 85.257812 183.351562 85.203125 183.453125 85.046875 C 183.871094 84.527344 185.332031 82.859375 187.519531 82.859375 C 188.089844 82.859375 188.664062 82.964844 189.238281 83.171875 C 189.652344 84.839844 190.019531 86.457031 190.28125 88.019531 C 190.851562 90.570312 191.894531 92.757812 193.40625 94.582031 C 193.875 95.15625 194.289062 95.574219 194.707031 95.988281 C 195.4375 96.71875 195.851562 97.136719 195.800781 97.554688 C 195.75 97.917969 195.230469 98.855469 191.269531 99.691406 C 191.0625 99.742188 190.90625 99.898438 190.851562 100.109375 C 190.695312 100.523438 190.539062 100.941406 190.382812 101.355469 L 183.871094 101.355469 C 183.660156 101.355469 183.507812 101.460938 183.402344 101.566406 C 183.296875 101.722656 183.246094 101.878906 183.296875 102.089844 C 183.453125 102.660156 184.132812 104.585938 186.113281 105.578125 C 186.578125 105.785156 187.046875 105.941406 187.519531 105.996094 C 185.539062 108.234375 183.140625 109.589844 180.589844 109.796875 C 180.277344 109.796875 180.015625 109.796875 179.703125 109.796875 C 179.601562 109.796875 179.546875 109.796875 179.445312 109.796875 C 178.246094 109.746094 177.046875 109.433594 175.847656 108.863281 C 175.535156 108.703125 175.222656 108.863281 175.066406 109.171875 C 174.910156 109.488281 175.066406 109.796875 175.378906 109.953125 C 176.214844 110.371094 177.097656 110.632812 177.984375 110.789062 C 176.265625 112.09375 174.804688 113.601562 173.554688 115.375 C 171.316406 118.707031 170.535156 122.042969 170.328125 124.285156 C 170.273438 124.597656 170.535156 124.910156 170.847656 124.910156 L 170.898438 124.910156 C 171.210938 124.910156 171.472656 124.703125 171.472656 124.386719 C 171.679688 122.304688 172.410156 119.125 174.496094 116.050781 C 175.847656 114.019531 177.621094 112.351562 179.703125 110.996094 C 179.753906 110.996094 179.808594 110.996094 179.859375 110.996094 C 180.121094 110.996094 180.382812 110.996094 180.640625 110.945312 C 183.820312 110.683594 186.839844 108.863281 189.132812 105.785156 C 189.339844 105.476562 189.550781 105.160156 189.808594 104.847656 C 189.808594 104.847656 189.808594 104.847656 189.808594 104.796875 C 189.964844 104.585938 190.070312 104.378906 190.171875 104.171875 C 190.226562 104.121094 190.226562 104.066406 190.28125 103.960938 C 190.332031 103.859375 190.433594 103.703125 190.488281 103.597656 C 190.539062 103.546875 190.539062 103.496094 190.539062 103.441406 C 190.695312 103.128906 190.851562 102.816406 190.957031 102.554688 L 190.957031 102.503906 C 191.007812 102.453125 191.007812 102.398438 191.007812 102.347656 C 191.007812 102.296875 191.0625 102.296875 191.0625 102.242188 C 191.0625 102.191406 191.113281 102.191406 191.113281 102.140625 L 191.164062 102.089844 C 191.371094 101.617188 191.527344 101.148438 191.738281 100.679688 C 195.070312 99.949219 196.6875 98.960938 196.894531 97.605469 C 197 96.617188 196.320312 95.9375 195.488281 95.054688 C 195.121094 94.6875 194.707031 94.273438 194.289062 93.75 C 192.882812 92.082031 191.945312 90.050781 191.425781 87.707031 C 191.113281 86.039062 190.746094 84.265625 190.332031 82.496094 C 189.652344 79.734375 188.769531 76.972656 187.777344 74.316406 C 189.238281 73.535156 191.269531 71.96875 191.894531 69.414062 C 192.988281 65.039062 188.769531 61.027344 186.164062 59.359375 C 182.878906 57.328125 179.390625 57.171875 174.023438 57.691406 C 160.847656 58.945312 154.226562 59.570312 150.113281 64.152344 C 143.289062 71.710938 145.738281 83.328125 146.625 86.664062 C 144.019531 86.609375 138.234375 87.082031 133.652344 91.5625 C 128.960938 96.199219 127.398438 103.496094 129.640625 110.164062 "/>
</g>
</g>
</svg>
